<svg id="Group_750" data-name="Group 750" xmlns="http://www.w3.org/2000/svg" xmlns:xlink="http://www.w3.org/1999/xlink" width="26.826" height="28" viewBox="0 0 26.826 28">
  <defs>
    <clipPath id="clip-path">
      <rect id="Rectangle_1666" data-name="Rectangle 1666" width="26.826" height="28" transform="translate(0 0)" fill="none"/>
    </clipPath>
  </defs>
  <g id="Group_734" data-name="Group 734" transform="translate(0 0)" clip-path="url(#clip-path)">
    <path id="Path_1154" data-name="Path 1154" d="M32.518,3.581H22.174a1.266,1.266,0,0,1-1.265-1.265V1.265A1.266,1.266,0,0,1,22.174,0H32.518a1.266,1.266,0,0,1,1.265,1.265V2.315a1.266,1.266,0,0,1-1.265,1.265M22.174,1.1A.169.169,0,0,0,22,1.265V2.315a.169.169,0,0,0,.169.169H32.518a.169.169,0,0,0,.169-.169V1.265a.169.169,0,0,0-.169-.169Z" transform="translate(-16.327 0)" fill="#344154"/>
    <path id="Path_1155" data-name="Path 1155" d="M6.775,19.5a.548.548,0,0,1-.548-.548,5.815,5.815,0,0,1,3.965-5.933.459.459,0,0,0,.307-.439v-.695a.548.548,0,1,1,1.1,0v.695a1.554,1.554,0,0,1-1.051,1.477,4.713,4.713,0,0,0-3.221,4.9.548.548,0,0,1-.548.548" transform="translate(-4.863 -8.855)" fill="#344154"/>
    <path id="Path_1156" data-name="Path 1156" d="M74.73,19.792a.548.548,0,0,1-.548-.548v-.289a4.712,4.712,0,0,0-3.221-4.9,1.555,1.555,0,0,1-1.05-1.477v-.695a.548.548,0,1,1,1.1,0v.695a.459.459,0,0,0,.307.439,5.815,5.815,0,0,1,3.965,5.933v.289a.548.548,0,0,1-.548.548" transform="translate(-54.591 -8.855)" fill="#344154"/>
    <path id="Path_1157" data-name="Path 1157" d="M5.039,75.153H1.524A1.518,1.518,0,0,1,.007,73.636V65.275c-.062-.932.243-2.645,1.74-3.134v-1a.548.548,0,1,1,1.1,0v1.437a.548.548,0,0,1-.476.543C.989,63.3,1.1,65.139,1.1,65.217c0,.012,0,.026,0,.039v8.38a.422.422,0,0,0,.421.421H5.039a.548.548,0,1,1,0,1.1" transform="translate(0 -47.316)" fill="#344154"/>
    <path id="Path_1158" data-name="Path 1158" d="M32.885,66.646a.548.548,0,0,1-.548-.548v-.843c0-.016,0-.032,0-.048.006-.076.139-1.908-1.262-2.088a.548.548,0,0,1-.478-.543V61.141a.548.548,0,1,1,1.1,0v1c1.522.485,1.812,2.2,1.738,3.141v.82a.548.548,0,0,1-.548.548" transform="translate(-23.895 -47.316)" fill="#344154"/>
    <path id="Path_1159" data-name="Path 1159" d="M10.372,54.563H4.782a1.189,1.189,0,0,1-1.188-1.188v-.719a1.189,1.189,0,0,1,1.188-1.188h5.591a1.189,1.189,0,0,1,1.188,1.188v.719a1.189,1.189,0,0,1-1.188,1.188m-5.591-2a.092.092,0,0,0-.092.092v.719a.092.092,0,0,0,.092.092h5.591a.092.092,0,0,0,.092-.092v-.719a.092.092,0,0,0-.092-.092Z" transform="translate(-2.806 -40.19)" fill="#344154"/>
    <path id="Path_1160" data-name="Path 1160" d="M55.936,96.394A4.543,4.543,0,0,1,52.677,94.9a.548.548,0,0,1-.046-.723c.159-.2,3.941-5.02,8.485-5.411a6.655,6.655,0,0,1,5.2,1.884.548.548,0,0,1-.35.952,8.361,8.361,0,0,0-4.9,2.156c-1.853,1.756-3.568,2.636-5.13,2.636m-2.117-1.929c1.213,1.02,3.16,1.657,6.493-1.5A9.264,9.264,0,0,1,64.6,90.706a5.329,5.329,0,0,0-3.384-.848c-3.364.288-6.42,3.486-7.395,4.606" transform="translate(-41.009 -69.296)" fill="#344154"/>
    <path id="Path_1161" data-name="Path 1161" d="M46.509,63.9a.546.546,0,0,1-.387-.16l-.507-.507c-2.319-2.319-1.935-5.142,1.143-8.388a5.15,5.15,0,0,0,.682-5.264.548.548,0,0,1,.715-.706,6.8,6.8,0,0,1,3.939,7.871.548.548,0,0,1-1.068-.246,5.433,5.433,0,0,0-2.183-5.978,6.114,6.114,0,0,1-1.285,5.071c-3.5,3.7-2.345,5.688-1.168,6.865l.507.507a.548.548,0,0,1-.387.935" transform="translate(-34.454 -38.132)" fill="#344154"/>
    <path id="Path_1162" data-name="Path 1162" d="M80.654,56.23a.548.548,0,0,1-.4-.921c2.759-2.962,4.837-7.01,3.533-8.314-1-1-4.364-.036-8.04,3.281a.548.548,0,0,1-.734-.814c3.9-3.515,7.912-4.879,9.548-3.242,1.7,1.7.222,5.833-3.506,9.836a.547.547,0,0,1-.4.174" transform="translate(-58.434 -35.555)" fill="#344154"/>
    <path id="Path_1163" data-name="Path 1163" d="M82.767,64.205a7.907,7.907,0,0,1,3.642-.253c2.236-2.569,3.136-4.8,3.2-5.941-2.868,4.4-5.607,2.737-6.84,6.194" transform="translate(-64.631 -45.299)" fill="#ff9122"/>
    <path id="Path_1164" data-name="Path 1164" d="M42.468,116.388a1.285,1.285,0,0,1-.974-2.119,5.928,5.928,0,0,0,.576-.807.548.548,0,0,1,.945.554,7,7,0,0,1-.683.959.189.189,0,0,0,.267.267,7.011,7.011,0,0,1,.963-.685.548.548,0,1,1,.554.945,5.93,5.93,0,0,0-.812.579,1.3,1.3,0,0,1-.836.308" transform="translate(-32.161 -88.388)" fill="#344154"/>
  </g>
</svg>
