<svg id="Group_729" data-name="Group 729" xmlns="http://www.w3.org/2000/svg" xmlns:xlink="http://www.w3.org/1999/xlink" width="21.915" height="28" viewBox="0 0 21.915 28">
  <defs>
    <clipPath id="clip-path">
      <rect id="Rectangle_1659" data-name="Rectangle 1659" width="21.915" height="28" fill="none"/>
    </clipPath>
  </defs>
  <g id="Group_710" data-name="Group 710" transform="translate(0 0)" clip-path="url(#clip-path)">
    <path id="Path_1093" data-name="Path 1093" d="M37.052,44.707a5.418,5.418,0,0,1-2.912,3.229,4.259,4.259,0,0,1-4.643-.742,19.97,19.97,0,0,0-4.425-2.819l5.521-4.643a4.052,4.052,0,0,1,6.245,1.251c.011.029.026.055.037.081a4.864,4.864,0,0,1,.178,3.643" transform="translate(-19.329 -30.12)" fill="#ff9122"/>
    <path id="Path_1094" data-name="Path 1094" d="M17.219,48.1a2.728,2.728,0,0,1-.607-.068,1.928,1.928,0,0,1-1.583-1.65A2.983,2.983,0,0,1,16.1,43.642l.816-.686.015-.013L22.447,38.3a4.379,4.379,0,0,1,1.822-.919,4.477,4.477,0,0,1,1.955-.023,4.24,4.24,0,0,1,2.958,2.3l.027.056.012.025v0a5.06,5.06,0,0,1,.472,1.923,5.243,5.243,0,0,1-.284,1.959A5.8,5.8,0,0,1,28.1,45.8a6,6,0,0,1-1.761,1.244,4.582,4.582,0,0,1-4.99-.79,19.447,19.447,0,0,0-4.165-2.684l-.668.562a2.345,2.345,0,0,0-.854,2.152,1.3,1.3,0,0,0,1.1,1.135,2.33,2.33,0,0,0,1.907-.448l.407-.3a.318.318,0,1,1,.381.509l-.407.3A3.05,3.05,0,0,1,17.219,48.1Zm.493-4.986c.269.134.641.327,1.073.573a18.118,18.118,0,0,1,2.982,2.084,3.947,3.947,0,0,0,4.3.69,5.1,5.1,0,0,0,2.745-3.045,4.609,4.609,0,0,0,.25-1.722,4.427,4.427,0,0,0-.413-1.682l-.012-.025-.024-.051a3.608,3.608,0,0,0-2.518-1.955,3.837,3.837,0,0,0-1.676.02,3.749,3.749,0,0,0-1.559.787Z" transform="translate(-11.389 -28.938)" fill="#344154"/>
    <path id="Path_1095" data-name="Path 1095" d="M.745-1h18a.53.53,0,0,1,.53.53V2.123A47.579,47.579,0,0,1,20.491,12.8a47.581,47.581,0,0,1-1.215,10.68v2.562a.53.53,0,0,1-.53.53h-18a.53.53,0,0,1-.53-.53V23.483a47.556,47.556,0,0,1,0-21.361V-.47A.53.53,0,0,1,.745-1ZM18.215.06H1.276V2.183a.53.53,0,0,1-.014.12,46.5,46.5,0,0,0-.025,20.89.529.529,0,0,1,.039.2v2.122h16.94V23.393a.529.529,0,0,1,.039-.2A46.521,46.521,0,0,0,19.43,12.8a46.517,46.517,0,0,0-1.2-10.5.53.53,0,0,1-.014-.12Z" transform="translate(1.212 1.212)" fill="#344154"/>
  </g>
</svg>
