<svg xmlns="http://www.w3.org/2000/svg" width="111.932" height="20" viewBox="0 0 111.932 20">
  <g id="Group_727" data-name="Group 727" transform="translate(-3136 -7299)">
    <path id="Icon_metro-visa" data-name="Icon metro-visa" d="M28.287,21.513h-1.8q.182-.482.859-2.331l.039-.117q.052-.13.13-.339t.117-.339l.156.716Zm-18.8-.846-.755-3.841a.863.863,0,0,0-.977-.7H4.263l-.026.169a6.907,6.907,0,0,1,5.247,4.375Zm2.331-4.544-2.109,5.7-.221-1.159A4.734,4.734,0,0,0,8.378,18.98a5.05,5.05,0,0,0-1.706-1.152L8.43,24.469h2.279l3.4-8.346H11.815Zm1.81,8.359h2.161l1.354-8.359H14.979Zm10-8.151a5.277,5.277,0,0,0-1.94-.352,4.22,4.22,0,0,0-2.617.768,2.422,2.422,0,0,0-1.029,1.992q-.013,1.328,1.888,2.266a3.6,3.6,0,0,1,.872.534.693.693,0,0,1,.247.508.652.652,0,0,1-.391.6,1.88,1.88,0,0,1-.9.208,4.7,4.7,0,0,1-2.031-.43l-.286-.143-.3,1.875a5.769,5.769,0,0,0,2.409.443,4.3,4.3,0,0,0,2.715-.768,2.56,2.56,0,0,0,1.048-2.083q0-1.38-1.823-2.266a6.292,6.292,0,0,1-.924-.547.627.627,0,0,1-.286-.495.608.608,0,0,1,.319-.5,1.64,1.64,0,0,1,.918-.215,3.676,3.676,0,0,1,1.615.312l.2.1Zm5.534-.208H27.492a1.106,1.106,0,0,0-1.133.7l-3.2,7.656h2.266l.456-1.25h2.76q.065.286.26,1.25H30.9Zm3.411-4.167V28.622A1.69,1.69,0,0,1,30.9,30.289H4.237a1.6,1.6,0,0,1-1.172-.495,1.6,1.6,0,0,1-.495-1.172V11.956a1.6,1.6,0,0,1,.495-1.172,1.6,1.6,0,0,1,1.172-.495H30.9a1.69,1.69,0,0,1,1.667,1.667Z" transform="translate(3133.429 7288.711)" fill="#3a5057"/>
    <path id="Icon_metro-mastercard" data-name="Icon metro-mastercard" d="M11.308,20.771h-.169q-.612,0-.612.417,0,.286.26.286a.435.435,0,0,0,.365-.2A.9.9,0,0,0,11.308,20.771Zm5.143-.469h.807v-.039a.2.2,0,0,0,.007-.085q-.006-.033-.013-.091a.366.366,0,0,0-.026-.1.271.271,0,0,0-.059-.085.32.32,0,0,0-.1-.065.371.371,0,0,0-.15-.026q-.365,0-.469.495Zm7.031.469h-.156q-.625,0-.625.417,0,.286.26.286a.435.435,0,0,0,.365-.2A.9.9,0,0,0,23.482,20.771Zm4.154-.339q0-.534-.391-.534a.462.462,0,0,0-.4.26,1.275,1.275,0,0,0-.156.664q0,.547.365.547a.485.485,0,0,0,.423-.26A1.261,1.261,0,0,0,27.636,20.432ZM8.821,18.6H9.953L9.38,22.008H8.651l.417-2.617-.924,2.617H7.636l-.052-2.6-.443,2.6h-.69L7.024,18.6H8.078L8.1,20.719Zm3.294,1.393q0,.078-.052.547-.208,1.315-.221,1.471h-.612l.013-.286a.9.9,0,0,1-.755.339A.629.629,0,0,1,10,21.852.783.783,0,0,1,9.81,21.3a.965.965,0,0,1,.339-.788,1.452,1.452,0,0,1,.951-.28,2.808,2.808,0,0,1,.3.013.366.366,0,0,1,.007-.072q.007-.033.013-.059a.179.179,0,0,0,.007-.039q0-.26-.469-.26a2.42,2.42,0,0,0-.768.13q0-.052.091-.625a3.19,3.19,0,0,1,.872-.143q.964,0,.964.807Zm2.031-.755-.1.638a3.967,3.967,0,0,0-.534-.039q-.352,0-.352.221a.2.2,0,0,0,.059.156,1.177,1.177,0,0,0,.28.143.818.818,0,0,1,.521.781q0,.938-1.133.924a3.154,3.154,0,0,1-.755-.078q0-.026.091-.638a2.54,2.54,0,0,0,.664.1q.417,0,.417-.247a.2.2,0,0,0-.059-.15,1.164,1.164,0,0,0-.28-.163.827.827,0,0,1-.56-.768q0-.937,1.094-.938A3.4,3.4,0,0,1,14.146,19.234Zm1.146,0h.365l-.091.677h-.378q-.026.221-.085.527t-.091.5a2.311,2.311,0,0,0-.033.234q0,.208.247.208a.856.856,0,0,0,.208-.026l-.1.612a1.647,1.647,0,0,1-.521.091q-.56,0-.586-.612a5.629,5.629,0,0,1,.1-.729q.039-.26.326-1.9h.716Zm2.643.951a2.918,2.918,0,0,1-.091.677H16.4a.446.446,0,0,0,.13.43.748.748,0,0,0,.495.143,1.669,1.669,0,0,0,.755-.182l-.117.7a2.883,2.883,0,0,1-.742.1,1.093,1.093,0,0,1-1.237-1.237,1.868,1.868,0,0,1,.358-1.178,1.1,1.1,0,0,1,.9-.462.963.963,0,0,1,.723.273,1,1,0,0,1,.267.729Zm1.81-.964a3.07,3.07,0,0,0-.286.807q-.286-.026-.4.312a13.18,13.18,0,0,0-.326,1.667H18l.039-.182q.286-1.693.378-2.591h.664l-.039.43a1.554,1.554,0,0,1,.332-.384.431.431,0,0,1,.371-.059Zm2.435-.534-.117.742a1.487,1.487,0,0,0-.651-.182.79.79,0,0,0-.664.358,1.522,1.522,0,0,0-.26.918.96.96,0,0,0,.176.612.6.6,0,0,0,.5.221,1.472,1.472,0,0,0,.625-.169l-.13.768a2.4,2.4,0,0,1-.651.1,1.17,1.17,0,0,1-.931-.4,1.581,1.581,0,0,1-.345-1.074,2.317,2.317,0,0,1,.462-1.491,1.456,1.456,0,0,1,1.191-.579,2.335,2.335,0,0,1,.794.169Zm2.109,1.3a3.381,3.381,0,0,1-.052.547q-.169,1.029-.221,1.471h-.6l.013-.286a.909.909,0,0,1-.768.339.609.609,0,0,1-.482-.208A.8.8,0,0,1,22,21.3a.974.974,0,0,1,.332-.788,1.425,1.425,0,0,1,.944-.28,2.592,2.592,0,0,1,.3.013.619.619,0,0,0,.026-.169q0-.26-.469-.26a2.42,2.42,0,0,0-.768.13q0-.052.1-.625a3.19,3.19,0,0,1,.872-.143q.951,0,.951.807Zm1.836-.768a2.509,2.509,0,0,0-.273.807.375.375,0,0,0-.41.3,14.679,14.679,0,0,0-.332,1.68H24.38l.039-.182q.247-1.354.378-2.591h.677a2.642,2.642,0,0,1-.052.43,1.752,1.752,0,0,1,.345-.384.408.408,0,0,1,.358-.059Zm1.836-.625h.729l-.56,3.411h-.69l.039-.247a.934.934,0,0,1-.677.3.772.772,0,0,1-.645-.312,1.329,1.329,0,0,1-.241-.833,2.025,2.025,0,0,1,.358-1.2,1.023,1.023,0,0,1,.84-.508.845.845,0,0,1,.69.378Zm1.445,1.693a7.083,7.083,0,0,0-11.354-5.651,7.466,7.466,0,0,1,2.227,3.7h-.651a7.011,7.011,0,0,0-2.057-3.294,7.011,7.011,0,0,0-2.057,3.294h-.651a7.466,7.466,0,0,1,2.227-3.7,7.087,7.087,0,0,0-10.41,2.1,7.08,7.08,0,0,0,6.139,10.638,6.957,6.957,0,0,0,4.271-1.432A7.489,7.489,0,0,1,14.94,22.5h.651a6.952,6.952,0,0,0,1.979,3.034A6.952,6.952,0,0,0,19.55,22.5H20.2a7.488,7.488,0,0,1-2.148,3.437,7.071,7.071,0,0,0,11.354-5.651Zm3.164-8.333V28.622A1.69,1.69,0,0,1,30.9,30.289H4.237a1.6,1.6,0,0,1-1.172-.495,1.6,1.6,0,0,1-.495-1.172V11.956a1.6,1.6,0,0,1,.495-1.172,1.6,1.6,0,0,1,1.172-.495H30.9a1.69,1.69,0,0,1,1.667,1.667Z" transform="translate(3173.434 7288.711)" fill="#3a5057"/>
    <path id="Icon_payment-unionpay" data-name="Icon payment-unionpay" d="M37.283,16.941a1.784,1.784,0,0,1,.273,1.5L33.829,34.258a2.519,2.519,0,0,1-.909,1.5,2.408,2.408,0,0,1-1.546.591H7.284a1.511,1.511,0,0,1-1.273-.591,1.773,1.773,0,0,1-.273-1.5L9.465,18.441a2.513,2.513,0,0,1,.909-1.5,2.412,2.412,0,0,1,1.546-.591H36.011a1.516,1.516,0,0,1,1.273.591Zm-24,7.318.727-2.727v-.091H12.92q-.091.184-.636,2.727a2.337,2.337,0,0,1-.454,1.091.884.884,0,0,1-.636.182c-.364,0-.546-.15-.546-.454V24.8l.091-.636.636-2.636v-.091a3.9,3.9,0,0,1-1.273,0l-.091.182-.546,2.636-.091.182-.091.727v.364l.091.182a1.755,1.755,0,0,0,1.546.546,2.33,2.33,0,0,0,1.454-.364,3.747,3.747,0,0,0,.909-1.364v-.274Zm3.364-.546q-.091-.273-.546-.273a2.389,2.389,0,0,0-.727.091l-.182.182.091-.273-.09-.091a2.919,2.919,0,0,1-1.091.182v.091a3.916,3.916,0,0,1-.091.636q-.1.5-.182,1-.091.273-.273,1h1.091v-.091a.392.392,0,0,1,.046-.182,1.9,1.9,0,0,0,.091-.227,1.388,1.388,0,0,0,.046-.409,2.48,2.48,0,0,1,.091-.546,2.815,2.815,0,0,0,.091-.454.53.53,0,0,1,.364-.091c.121,0,.182.091.182.273a5.457,5.457,0,0,1-.182.909l-.091.273a1.257,1.257,0,0,1-.046.273,1.214,1.214,0,0,0-.046.273h1l.091-.091a1.95,1.95,0,0,1,.091-.5,2.2,2.2,0,0,0,.091-.591l.091-.273a2.557,2.557,0,0,0,.092-1.092Zm1.727.364v-.091a2.013,2.013,0,0,1-.636.091l-.182.091h-.364a1.257,1.257,0,0,1-.046.273,1.214,1.214,0,0,0-.046.273,2.968,2.968,0,0,1-.182.727.529.529,0,0,1-.091.364,1.516,1.516,0,0,1-.091.454h1.091v-.091a.814.814,0,0,0,.091-.364v-.091c.06-.182.121-.364.182-.546a1.186,1.186,0,0,1,.046-.273,1.26,1.26,0,0,0,.046-.273v-.091l.091-.182a.712.712,0,0,0,.091-.273Zm.136-.545a.222.222,0,0,0-.136-.273c-.243-.182-.546-.15-.909.091q-.364.273-.091.546a.977.977,0,0,0,.909-.091.407.407,0,0,0,.227-.273Zm.5,2.636a2.914,2.914,0,0,0,.727.182,1.745,1.745,0,0,0,1.273-.546,1.236,1.236,0,0,0,.364-.909q.181-.818-.091-1.091a1.069,1.069,0,0,0-.909-.364,1.426,1.426,0,0,0-1.182.454,1.736,1.736,0,0,0-.546,1q-.272,1.091.364,1.273Zm2,5.364-.546.091c-.243,0-.364-.06-.364-.182l.273-.818h1.091l.182-.636H20.556l.182-.454h1l.182-.636H19.375l-.182.636h.636l-.182.454h-.636l-.182.636h.636L19.1,31.8a.366.366,0,0,0,.091.273l.182.091h1.455l.182-.636ZM21.1,27.8l.182-.364h-1l-.273.454a1.05,1.05,0,0,1-.182.273h-.364l-.182.636h.454a.613.613,0,0,0,.454-.182.264.264,0,0,0,.182-.091l.182-.091h1.364L22.1,27.8h-1ZM19.556,25.35l.091-.182v-.273q.181-.818.546-.818c.241,0,.3.243.182.727a.706.706,0,0,1-.273.636q-.091.273-.273.273l-.273-.364ZM23.1,31.532h-.727v-.273l.364-1.273h2l.182-.091.273-.273.728-2.182H24.466l-.636.182a4.408,4.408,0,0,0-.454.273l.091-.454h-.909l-1.182,4.182a.371.371,0,0,0-.091.273c0,.061.06.152.182.273H22.92l.181-.637Zm-1.636-5.273h1.091v-.091a2.24,2.24,0,0,0,.182-.818,3.544,3.544,0,0,1,.091-.5,1.191,1.191,0,0,1,.182-.5.371.371,0,0,1,.273-.091c.121,0,.182.091.182.273a5.456,5.456,0,0,1-.182.909v.273a.711.711,0,0,1-.091.273.7.7,0,0,0-.091.273h1.091v-.091a6.607,6.607,0,0,0,.182-1.091l.091-.273a1.409,1.409,0,0,0,.091-1.091q-.091-.273-.546-.273a2.043,2.043,0,0,0-.636.091.264.264,0,0,1-.182.091.08.08,0,0,0-.091.091l.091-.273V23.35a3.4,3.4,0,0,1-1.091.182l-.091.091a13.566,13.566,0,0,1-.273,1.636q-.091.272-.273,1Zm2.728,3.182H22.92l.091-.364h1.454l-.091.364Zm-.364-.909a2.03,2.03,0,0,0-.727.273l.182-.636h1.454l-.091.364h-.818Zm1.364,1.545h-.727l-.091.273v.091h-.364v-.273h-.818L23.1,31.895c0,.122.03.182.091.182a1.5,1.5,0,0,0,.727.091h.546l.273-.636h-.546l-.091.091-.182-.182v-.454h.546a.613.613,0,0,0,.454-.182.523.523,0,0,0,.182-.364l.09-.364Zm-.364-3.818h1.182a6.956,6.956,0,0,1,.182-1l.182-.636.091-.091h.091a3.032,3.032,0,0,0,1.909-.454,1.713,1.713,0,0,0,.818-1.182v-.454a1.29,1.29,0,0,0-.091-.546q-.273-.454-1.546-.454H25.92v.182l-.364,1.454-.728,3.182Zm3.364,5.727h.273l.182-.636h-.273l1-3.273h.273l.091-.273v.364c0,.3.212.424.636.364h.546l.182-.636H30.92c-.122,0-.182-.03-.182-.091V27.44h-1c-.122,0-.379.016-.773.046s-.622.046-.682.046a2.319,2.319,0,0,0-.546.273l.091-.364H26.92l-.182.636-1,3.273h-.182l-.182.636h1.909l-.091.182H28.1l.092-.182ZM26.738,23.8h-.182v-.091l.364-1.454v-.091h.091l.727.091c.3.122.394.364.273.727q0,.456-.546.636a1.046,1.046,0,0,1-.727.182Zm.182,6.818h.727l-.182.727h-.727l.182-.727Zm.364-1.273h.727l-.182.636h-.364a1.109,1.109,0,0,1-.454.182l.273-.818Zm1.182-1.273-.182.636-.454.091a.936.936,0,0,0-.364.182l.182-.909Zm4,.636h-3l-.182.636h1.091l-.182.546H29.1l-.182.546h1l-.727,1a.263.263,0,0,1-.182.091c-.061,0-.091.016-.091.046s-.031.046-.091.046h-.273l-.182.546H29.1a.863.863,0,0,0,.727-.364l.454-.636.091.636a.982.982,0,0,0,.182.273l.182.091h.636l.273-.636h-.182c-.122,0-.182-.03-.182-.091a.08.08,0,0,1-.091-.091l-.091-.727h-.454l.182-.182H31.92L32.1,29.9h-1l.182-.546h1l.182-.637ZM29.193,23.9a1.831,1.831,0,0,0-.546,1.091q-.273,1,.454,1.273a1.263,1.263,0,0,0,.546.091.421.421,0,0,0,.454-.273v.182h1.182a10.619,10.619,0,0,1,.273-1.636l.273-1.091v-.091a1.516,1.516,0,0,0-.454.091,2.663,2.663,0,0,1-.636.091l-.091.091V23.8a.357.357,0,0,0-.364-.273q-.456-.272-1.091.364Zm.454,1.545v-.454q.362-.818.546-.818.454,0,.273.454V24.9l-.091.182v.182l-.091.182a.08.08,0,0,0-.091.091c0,.122-.122.182-.364.182l-.182-.274ZM30.374,25.077Zm4.818-1.636H35.1a1.517,1.517,0,0,0-.454.091,1.711,1.711,0,0,1-.546.091h-.091c-.122.3-.227.561-.318.773s-.168.379-.227.5V24.8l-.091-1.364h-.091q-.5.1-1,.182v.091a5.514,5.514,0,0,0,.091.727,1.774,1.774,0,0,0,.046.318,1.981,1.981,0,0,1,.046.318,6.328,6.328,0,0,1,.091,1.182l-.636,1.273-.273.273a.08.08,0,0,1-.091.091h-.273l-.182.636h.636a.733.733,0,0,0,.727-.364l.364-.727h.091q.272-.545,2.273-4Z" transform="translate(3210.324 7282.65)" fill="#3a5057"/>
  </g>
</svg>
