<svg id="Group_727" data-name="Group 727" xmlns="http://www.w3.org/2000/svg" xmlns:xlink="http://www.w3.org/1999/xlink" width="23.569" height="28" viewBox="0 0 23.569 28">
  <defs>
    <clipPath id="clip-path">
      <rect id="Rectangle_1663" data-name="Rectangle 1663" width="23.569" height="28" fill="none"/>
    </clipPath>
  </defs>
  <g id="Group_722" data-name="Group 722" clip-path="url(#clip-path)">
    <path id="Path_1122" data-name="Path 1122" d="M21.575,28H2.01A2,2,0,0,1,.016,26.006L0,1.994A2,2,0,0,1,1.994,0H21.559a2,2,0,0,1,1.994,1.994l.016,24.012A2,2,0,0,1,21.575,28M1.994,1.055a.94.94,0,0,0-.939.939l.016,24.012a.94.94,0,0,0,.94.939H21.575a.94.94,0,0,0,.939-.939L22.5,1.994a.94.94,0,0,0-.939-.939Z" fill="#344154"/>
    <path id="Path_1123" data-name="Path 1123" d="M12.467,18.82H9a.742.742,0,0,1-.742-.742V12.392A.742.742,0,0,1,9,11.65h3.467a.742.742,0,0,1,.742.742v5.686a.742.742,0,0,1-.742.742" transform="translate(-6.516 -9.193)" fill="#8aa0b2"/>
    <path id="Path_1124" data-name="Path 1124" d="M11.68,66.762a1.064,1.064,0,0,1-.1-.231.955.955,0,0,1-.048-.3.575.575,0,0,1,.136-.427.483.483,0,0,1,.351-.132h1.707a1.693,1.693,0,0,1,.1.231.885.885,0,0,1,.052.3.575.575,0,0,1-.136.427.483.483,0,0,1-.351.132Z" transform="translate(-9.096 -51.817)" fill="#ff9122"/>
    <path id="Path_1125" data-name="Path 1125" d="M27.015,54.985q-.351-.12-.638-.243a1.955,1.955,0,0,1-.495-.3,1.234,1.234,0,0,1-.323-.419,1.375,1.375,0,0,1-.116-.594,1.313,1.313,0,0,1,.335-.913,1.749,1.749,0,0,1,.957-.506v-.646q.072-.016.223-.04a1.977,1.977,0,0,1,.311-.024.931.931,0,0,1,.487.108.5.5,0,0,1,.176.459v.1a1.926,1.926,0,0,1,.794.255.6.6,0,0,1,.3.527.639.639,0,0,1-.1.355,1,1,0,0,1-.231.251,1.809,1.809,0,0,0-.471-.2,2.367,2.367,0,0,0-.646-.084,1.066,1.066,0,0,0-.527.1.291.291,0,0,0-.167.251.232.232,0,0,0,.1.2,1.066,1.066,0,0,0,.311.139l.423.136a3.061,3.061,0,0,1,1.153.61,1.3,1.3,0,0,1,.4,1.009,1.323,1.323,0,0,1-.343.921,1.8,1.8,0,0,1-1,.514v.638c-.048.011-.123.024-.223.04a2.009,2.009,0,0,1-.311.024.928.928,0,0,1-.486-.108.5.5,0,0,1-.176-.459v-.08a2.881,2.881,0,0,1-.523-.1,1.6,1.6,0,0,1-.407-.183.873.873,0,0,1-.267-.263.63.63,0,0,1-.1-.343.6.6,0,0,1,.136-.395,1.033,1.033,0,0,1,.3-.251,2.173,2.173,0,0,0,.547.3,1.906,1.906,0,0,0,.706.128.947.947,0,0,0,.551-.12.345.345,0,0,0,.159-.279.273.273,0,0,0-.128-.243,1.661,1.661,0,0,0-.359-.164Z" transform="translate(-20.076 -40.479)" fill="#ff9122"/>
    <path id="Path_1126" data-name="Path 1126" d="M48.38,54.985q-.351-.12-.638-.243a1.955,1.955,0,0,1-.495-.3,1.234,1.234,0,0,1-.323-.419,1.375,1.375,0,0,1-.116-.594,1.313,1.313,0,0,1,.335-.913,1.749,1.749,0,0,1,.957-.506v-.646q.072-.016.223-.04a1.977,1.977,0,0,1,.311-.024.931.931,0,0,1,.487.108.5.5,0,0,1,.176.459v.1a1.928,1.928,0,0,1,.794.255.6.6,0,0,1,.3.527.639.639,0,0,1-.1.355,1,1,0,0,1-.231.251,1.809,1.809,0,0,0-.471-.2,2.367,2.367,0,0,0-.646-.084,1.066,1.066,0,0,0-.527.1.291.291,0,0,0-.167.251.232.232,0,0,0,.1.2,1.066,1.066,0,0,0,.311.139l.423.136a3.061,3.061,0,0,1,1.153.61,1.3,1.3,0,0,1,.4,1.009,1.323,1.323,0,0,1-.343.921,1.8,1.8,0,0,1-1,.514v.638c-.048.011-.123.024-.223.04a2.009,2.009,0,0,1-.311.024.928.928,0,0,1-.486-.108.5.5,0,0,1-.176-.459v-.08a2.881,2.881,0,0,1-.523-.1,1.6,1.6,0,0,1-.407-.183.873.873,0,0,1-.267-.263.63.63,0,0,1-.1-.343.6.6,0,0,1,.136-.395,1.033,1.033,0,0,1,.3-.251,2.173,2.173,0,0,0,.547.3,1.906,1.906,0,0,0,.706.128.947.947,0,0,0,.551-.12A.345.345,0,0,0,49.2,55.5a.273.273,0,0,0-.128-.243,1.661,1.661,0,0,0-.359-.164Z" transform="translate(-36.934 -40.479)" fill="#ff9122"/>
    <path id="Path_1127" data-name="Path 1127" d="M69.745,54.985q-.351-.12-.638-.243a1.955,1.955,0,0,1-.495-.3,1.234,1.234,0,0,1-.323-.419,1.375,1.375,0,0,1-.116-.594,1.313,1.313,0,0,1,.335-.913,1.749,1.749,0,0,1,.957-.506v-.646q.072-.016.223-.04A1.977,1.977,0,0,1,70,51.3a.931.931,0,0,1,.487.108.5.5,0,0,1,.175.459v.1a1.928,1.928,0,0,1,.794.255.6.6,0,0,1,.3.527.639.639,0,0,1-.1.355,1,1,0,0,1-.231.251,1.808,1.808,0,0,0-.471-.2,2.367,2.367,0,0,0-.646-.084,1.066,1.066,0,0,0-.527.1.291.291,0,0,0-.167.251.232.232,0,0,0,.1.2,1.066,1.066,0,0,0,.311.139l.423.136a3.06,3.06,0,0,1,1.153.61,1.3,1.3,0,0,1,.4,1.009,1.323,1.323,0,0,1-.343.921,1.8,1.8,0,0,1-1,.514v.638c-.048.011-.123.024-.223.04a2.009,2.009,0,0,1-.311.024.928.928,0,0,1-.486-.108.5.5,0,0,1-.176-.459v-.08a2.881,2.881,0,0,1-.522-.1,1.6,1.6,0,0,1-.407-.183.873.873,0,0,1-.267-.263.63.63,0,0,1-.1-.343.6.6,0,0,1,.136-.395,1.033,1.033,0,0,1,.3-.251,2.173,2.173,0,0,0,.547.3,1.906,1.906,0,0,0,.706.128.947.947,0,0,0,.551-.12.345.345,0,0,0,.159-.279.273.273,0,0,0-.128-.243,1.661,1.661,0,0,0-.359-.164Z" transform="translate(-53.792 -40.479)" fill="#ff9122"/>
    <path id="Path_1128" data-name="Path 1128" d="M89.161,66.762a1.063,1.063,0,0,1-.1-.231.955.955,0,0,1-.048-.3.575.575,0,0,1,.136-.427.483.483,0,0,1,.351-.132H91.2a1.693,1.693,0,0,1,.1.231.885.885,0,0,1,.052.3.575.575,0,0,1-.136.427.483.483,0,0,1-.351.132Z" transform="translate(-70.233 -51.817)" fill="#ff9122"/>
    <path id="Line_47" data-name="Line 47" d="M-.432-.863h-.75A.318.318,0,0,1-1.5-1.182.318.318,0,0,1-1.182-1.5h.75a.318.318,0,0,1,.318.318A.318.318,0,0,1-.432-.863Z" transform="translate(4.4 26.581)" fill="#344154"/>
    <path id="Line_48" data-name="Line 48" d="M-.432-.863h-.75A.318.318,0,0,1-1.5-1.182.318.318,0,0,1-1.182-1.5h.75a.318.318,0,0,1,.318.318A.318.318,0,0,1-.432-.863Z" transform="translate(6.447 26.559)" fill="#344154"/>
    <path id="Line_49" data-name="Line 49" d="M-.432-.863h-.75A.318.318,0,0,1-1.5-1.182.318.318,0,0,1-1.182-1.5h.75a.318.318,0,0,1,.318.318A.318.318,0,0,1-.432-.863Z" transform="translate(8.495 26.538)" fill="#344154"/>
    <path id="Line_50" data-name="Line 50" d="M-.432-.863h-.75A.318.318,0,0,1-1.5-1.182.318.318,0,0,1-1.182-1.5h.75a.318.318,0,0,1,.318.318A.318.318,0,0,1-.432-.863Z" transform="translate(10.544 26.517)" fill="#344154"/>
    <path id="Line_51" data-name="Line 51" d="M-.432-.863h-.75A.318.318,0,0,1-1.5-1.182.318.318,0,0,1-1.182-1.5h.75a.318.318,0,0,1,.318.318A.318.318,0,0,1-.432-.863Z" transform="translate(12.592 26.496)" fill="#344154"/>
    <path id="Line_52" data-name="Line 52" d="M-.432-.863h-.749A.318.318,0,0,1-1.5-1.182.318.318,0,0,1-1.182-1.5h.749a.318.318,0,0,1,.318.318A.318.318,0,0,1-.432-.863Z" transform="translate(14.641 26.475)" fill="#344154"/>
    <path id="Line_53" data-name="Line 53" d="M-.432-.863h-.75A.318.318,0,0,1-1.5-1.182.318.318,0,0,1-1.182-1.5h.75a.318.318,0,0,1,.318.318A.318.318,0,0,1-.432-.863Z" transform="translate(16.689 26.454)" fill="#344154"/>
    <path id="Line_54" data-name="Line 54" d="M-.432-.863h-.75A.318.318,0,0,1-1.5-1.182.318.318,0,0,1-1.182-1.5h.75a.318.318,0,0,1,.318.318A.318.318,0,0,1-.432-.863Z" transform="translate(18.736 26.433)" fill="#344154"/>
    <path id="Line_54-2" data-name="Line 54" d="M-.432-.863h-.75A.318.318,0,0,1-1.5-1.182.318.318,0,0,1-1.182-1.5h.75a.318.318,0,0,1,.318.318A.318.318,0,0,1-.432-.863Z" transform="translate(20.783 26.433)" fill="#344154"/>
  </g>
</svg>
