<svg id="Group_727" data-name="Group 727" xmlns="http://www.w3.org/2000/svg" xmlns:xlink="http://www.w3.org/1999/xlink" width="20.983" height="28" viewBox="0 0 20.983 28">
  <defs>
    <clipPath id="clip-path">
      <rect id="Rectangle_1661" data-name="Rectangle 1661" width="20.983" height="28" fill="none"/>
    </clipPath>
  </defs>
  <g id="Group_715" data-name="Group 715" clip-path="url(#clip-path)">
    <path id="Path_1106" data-name="Path 1106" d="M28.61,22.715a.527.527,0,0,1-.525-.484.613.613,0,0,0-.446-.545.527.527,0,0,1-.36-.662.71.71,0,0,0-.242-.795.741.741,0,0,0-.828-.084.527.527,0,1,1-.527-.913,1.782,1.782,0,0,1,2.012.172,1.75,1.75,0,0,1,.674,1.463,1.66,1.66,0,0,1,.767,1.277.527.527,0,0,1-.482.568l-.044,0" transform="translate(-20.058 -14.992)" fill="#344154"/>
    <path id="Path_1107" data-name="Path 1107" d="M13.474,39.022a.526.526,0,0,1-.377-.159c-.029-.03-.057-.061-.083-.094a1.671,1.671,0,0,1-1.828-.722,1.8,1.8,0,0,1-1.477-.681,1.751,1.751,0,0,1-.154-2,.527.527,0,1,1,.916.523.711.711,0,0,0,.061.816.745.745,0,0,0,.809.254.527.527,0,0,1,.662.36.616.616,0,0,0,.954.329.527.527,0,0,1,.831.343.236.236,0,0,0,.062.133.527.527,0,0,1-.377.9" transform="translate(-7.349 -27.701)" fill="#344154"/>
    <path id="Path_1108" data-name="Path 1108" d="M2.716,14.9a3.8,3.8,0,0,1-2.549-1.12.527.527,0,0,1,.317-.91l1.131-.093L1.6,11.8a.527.527,0,0,1,.155-.382.535.535,0,0,1,.382-.155l.971.017L3.2,10.154a.527.527,0,0,1,.91-.317,3.314,3.314,0,0,1,.9,3.635,2.317,2.317,0,0,1-1.681,1.36,2.787,2.787,0,0,1-.609.067m-.492-1.117A1.886,1.886,0,0,0,3.1,13.8a1.269,1.269,0,0,0,.931-.721,1.956,1.956,0,0,0,.086-1.194.527.527,0,0,1-.523.46H3.58l-.919-.016.016.918a.527.527,0,0,1-.454.532" transform="translate(0 -7.631)" fill="#344154"/>
    <path id="Path_1109" data-name="Path 1109" d="M56.79,7.722A.528.528,0,0,1,56.3,7L58.843.734A1.18,1.18,0,0,1,60.6.2L63.237,2a.527.527,0,0,1-.593.871l-2.638-1.8A.123.123,0,0,0,59.9,1.06a.121.121,0,0,0-.08.073L57.279,7.393a.528.528,0,0,1-.489.329" transform="translate(-44.4 0)" fill="#344154"/>
    <path id="Path_1110" data-name="Path 1110" d="M38.773,108.109H30.987a.527.527,0,1,1,0-1.054h7.785a.527.527,0,1,1,0,1.054" transform="translate(-24.037 -84.482)" fill="#344154"/>
    <path id="Path_1111" data-name="Path 1111" d="M29.837,52.956c-1.637,0-1.7-.038-2.076-.28l.261-.459-.283.445c-.787-.5-.787-.5-1.206-6.958-.108-1.665-.245-3.778-.43-6.467l-.419-6.1A1.417,1.417,0,0,1,27.1,31.624h8.027a1.417,1.417,0,0,1,1.414,1.515l-.419,6.1c-.2,2.934-.349,5.175-.462,6.891-.384,5.824-.384,5.824-.847,6.261l-.046.044a1.789,1.789,0,0,1-1.249.516c-1.086,0-1.94,0-2.614.005l-1.065,0M27.1,32.678a.363.363,0,0,0-.362.388l.419,6.1c.185,2.691.322,4.805.43,6.471.2,3.077.3,4.621.417,5.418.085.58.123.6.3.719l.022.014c.179.114.19.122,2.57.112.675,0,1.53-.005,2.618-.005a.728.728,0,0,0,.508-.211l.064-.062a.463.463,0,0,0,.05-.049,44.492,44.492,0,0,0,.468-5.514c.113-1.717.261-3.959.463-6.894l.419-6.1a.363.363,0,0,0-.362-.388Z" transform="translate(-20.265 -24.956)" fill="#344154"/>
    <path id="Path_1112" data-name="Path 1112" d="M35.27,54.14l.189,2.741c.185,2.692.322,4.807.43,6.474q.014.22.028.432a.826.826,0,0,0,.825.772h3.869a.827.827,0,0,0,.825-.772v-.008c.113-1.718.261-3.961.463-6.9l.189-2.741Z" transform="translate(-27.833 -42.724)" fill="#ff9122"/>
    <path id="Path_1113" data-name="Path 1113" d="M69.658,29.856a3.628,3.628,0,0,1-.488-.028.527.527,0,0,1,.15-1.044,3.625,3.625,0,0,0,2.516-.7,4.021,4.021,0,0,0,1.321-2.725,4.612,4.612,0,0,0-4.284,1.311.527.527,0,0,1-.747-.743,5.667,5.667,0,0,1,5.782-1.454.527.527,0,0,1,.345.535,5.263,5.263,0,0,1-1.766,3.907,4.551,4.551,0,0,1-2.828.942" transform="translate(-53.64 -19.103)" fill="#344154"/>
    <path id="Path_1114" data-name="Path 1114" d="M73.164,43.255A5.675,5.675,0,0,1,71.471,43a.527.527,0,0,1,.342-1,4.052,4.052,0,0,0,2.866-.15,3,3,0,0,0,1.385-2.057.527.527,0,1,1,1.025.246,4,4,0,0,1-1.908,2.738,4.175,4.175,0,0,1-2.017.479" transform="translate(-56.12 -31.083)" fill="#344154"/>
  </g>
</svg>
