<svg id="Group_751" data-name="Group 751" xmlns="http://www.w3.org/2000/svg" xmlns:xlink="http://www.w3.org/1999/xlink" width="28" height="28" viewBox="0 0 28 28">
  <defs>
    <clipPath id="clip-path">
      <rect id="Rectangle_1665" data-name="Rectangle 1665" width="28" height="28" fill="none"/>
    </clipPath>
  </defs>
  <g id="Group_732" data-name="Group 732" clip-path="url(#clip-path)">
    <path id="Path_1148" data-name="Path 1148" d="M14,28A14,14,0,1,1,28,14,14.016,14.016,0,0,1,14,28M14,1.063A12.937,12.937,0,1,0,26.936,14,12.951,12.951,0,0,0,14,1.063" transform="translate(0 0)" fill="#344154"/>
    <path id="Path_1149" data-name="Path 1149" d="M22.651,41.067a.528.528,0,0,1-.117-.013,4.3,4.3,0,0,1-3.2-5.68,4.556,4.556,0,0,1,.9-1.566.532.532,0,1,1,.8.7,3.5,3.5,0,0,0-.693,1.2,3.347,3.347,0,0,0,.2,2.688,3.4,3.4,0,0,0,2.222,1.614.532.532,0,0,1-.116,1.051" transform="translate(-15.03 -26.476)" fill="#344154"/>
    <path id="Path_1150" data-name="Path 1150" d="M40.8,31.121A3.752,3.752,0,0,1,38,29.862a6.32,6.32,0,0,1-.493-.675,2.4,2.4,0,0,0-.778-.867A2.508,2.508,0,0,0,35.18,28.3a4.789,4.789,0,0,1-1.634.095,3.268,3.268,0,0,1-2.433-3.521,6.884,6.884,0,0,1,1.815-3.758l.106-.127a3.127,3.127,0,0,0,.908-1.623.793.793,0,0,0-.275-.716c-.412-.3-.958.155-1.115.3-.136.125-.265.267-.4.417a4.8,4.8,0,0,1-.841.782,2.715,2.715,0,1,1-2.619-4.742,6.45,6.45,0,0,1,.845-.284,1.983,1.983,0,0,0,1.364-.817h0a3.332,3.332,0,0,0,.283-1.32c.116-1.274.275-3.02,3.022-3.283a11.959,11.959,0,0,1,9.16,3.06A11.8,11.8,0,0,1,47.269,21.6a11.264,11.264,0,0,1-3.108,8.035A4.879,4.879,0,0,1,40.8,31.121m-4.687-3.994a2.358,2.358,0,0,1,1.1.247A3.3,3.3,0,0,1,38.39,28.6a5.382,5.382,0,0,0,.408.564,2.582,2.582,0,0,0,1.686.876,3.7,3.7,0,0,0,2.922-1.153,10.21,10.21,0,0,0,2.8-7.286,10.746,10.746,0,0,0-3.558-8.046,10.886,10.886,0,0,0-8.343-2.788c-1.869.179-1.951,1.078-2.064,2.321a4.09,4.09,0,0,1-.431,1.772,2.949,2.949,0,0,1-1.985,1.292,5.546,5.546,0,0,0-.709.235,1.652,1.652,0,1,0,1.6,2.888,3.956,3.956,0,0,0,.653-.619c.146-.16.3-.325.466-.482a1.9,1.9,0,0,1,2.459-.382A1.831,1.831,0,0,1,35,19.458a4.013,4.013,0,0,1-1.153,2.218l-.1.125a5.935,5.935,0,0,0-1.572,3.155,2.22,2.22,0,0,0,1.547,2.394A3.952,3.952,0,0,0,35,27.256a6.456,6.456,0,0,1,1.116-.129" transform="translate(-21.327 -7.6)" fill="#344154"/>
    <path id="Path_1151" data-name="Path 1151" d="M77.015,52.223a3.98,3.98,0,1,0,0,5.628,3.98,3.98,0,0,0,0-5.628m-.869,4.759c-1.529,1.487-3.356.228-3-.1.228-.272,1.344-.153,2.05-.859s.587-1.822.859-2.05c.323-.352,1.582,1.475.1,3" transform="translate(-55.285 -40.198)" fill="#ff9122"/>
    <path id="Path_1152" data-name="Path 1152" d="M99.529,103.789a1.8,1.8,0,0,1-1.28-.529l-1.136-1.136a.532.532,0,1,1,.752-.752L99,102.508a.747.747,0,0,0,1.056,0l2.451-2.451a.747.747,0,0,0,0-1.056l-1.136-1.136a.532.532,0,0,1,.752-.752l1.136,1.136a1.812,1.812,0,0,1,0,2.559l-2.45,2.451a1.806,1.806,0,0,1-1.28.529" transform="translate(-76.334 -76.335)" fill="#344154"/>
    <path id="Path_1153" data-name="Path 1153" d="M4.607,9.4a.531.531,0,0,1-.376-.156L3.1,8.107a1.812,1.812,0,0,1,0-2.56L5.546,3.1a1.812,1.812,0,0,1,2.559,0L9.241,4.233a.532.532,0,1,1-.752.752L7.353,3.849a.747.747,0,0,0-1.056,0L3.847,6.3a.748.748,0,0,0,0,1.056L4.983,8.491a.532.532,0,0,1-.376.908" transform="translate(-2.02 -2.022)" fill="#344154"/>
  </g>
</svg>
