<svg xmlns="http://www.w3.org/2000/svg" width="24" height="27.642" viewBox="0 0 24 27.642">
  <g id="Group_727" data-name="Group 727" transform="translate(-95 -91)">
    <path id="Icon_metro-fire" data-name="Icon metro-fire" d="M11.458,29.57c-1.842-3.833-.861-6.03.555-8.1a12.9,12.9,0,0,0,1.95-4.51,5.3,5.3,0,0,1,.731,4.063,10.254,10.254,0,0,0,2.235-7.679c4.867,3.4,6.948,10.767,4.144,16.225,14.911-8.437,3.709-21.06,1.759-22.482.65,1.422.773,3.829-.54,5-2.223-8.43-7.72-10.157-7.72-10.157.65,4.347-2.356,9.1-5.256,12.653A9.4,9.4,0,0,0,8.195,9.993c-.2,3.149-2.611,5.716-3.263,8.871C4.049,23.136,5.593,26.265,11.458,29.57Z" transform="translate(90.299 89.072)" fill="#e61c1c"/>
  </g>
</svg>
