<?xml version="1.0" encoding="utf-8"?>
<!-- Generator: Adobe Illustrator 25.0.0, SVG Export Plug-In . SVG Version: 6.00 Build 0)  -->
<svg version="1.1" id="Icon_awesome-arrow-alt-circle-left"
	 xmlns="http://www.w3.org/2000/svg" xmlns:xlink="http://www.w3.org/1999/xlink" x="0px" y="0px" viewBox="0 0 35 35"
	 style="enable-background:new 0 0 35 35;" xml:space="preserve">
<style type="text/css">
	.st0{fill:#00698B;}
</style>
<path id="Icon_awesome-arrow-alt-circle-left-2" class="st0" d="M0,17.5C0,7.8,7.8,0,17.5,0S35,7.8,35,17.5S27.2,35,17.5,35
	S0,27.2,0,17.5z M9.3,14.4c-0.5,0-0.8,0.4-0.8,0.8v4.5c0,0.5,0.4,0.8,0.8,0.8h8.2v5c0,0.2,0.1,0.4,0.2,0.6c0.3,0.3,0.9,0.3,1.2,0
	l8.1-8.1c0,0,0,0,0,0c0.3-0.3,0.3-0.9,0-1.2l-8.1-8.1c-0.2-0.2-0.4-0.2-0.6-0.2c-0.5,0-0.8,0.4-0.8,0.8v5L9.3,14.4L9.3,14.4z"/>
</svg>
