<svg id="Icon_awesome-arrow-alt-circle-left" data-name="Icon awesome-arrow-alt-circle-left" xmlns="http://www.w3.org/2000/svg" width="35" height="35" viewBox="0 0 35 35">
  <path id="Icon_awesome-arrow-alt-circle-left-2" data-name="Icon awesome-arrow-alt-circle-left" d="M18.063,35.563a17.5,17.5,0,1,1,17.5-17.5A17.5,17.5,0,0,1,18.063,35.563Zm8.185-20.6H18.063v-5a.847.847,0,0,0-1.447-.6L8.55,17.463a.839.839,0,0,0,0,1.193l8.066,8.108a.847.847,0,0,0,1.447-.6v-5h8.185a.849.849,0,0,0,.847-.847V15.8A.849.849,0,0,0,26.248,14.958Z" transform="translate(-0.563 -0.563)" fill="#00698b"/>
</svg>
