<svg xmlns="http://www.w3.org/2000/svg" width="52.187" height="46.388" viewBox="0 0 52.187 46.388">
  <path id="Icon_metro-shop" data-name="Icon metro-shop" d="M18.966,19.848,21.259,4.627H9.332L4.348,17.674a4.573,4.573,0,0,0-.235,1.45c0,3.2,3.334,5.8,7.454,5.8,3.8,0,6.938-2.215,7.4-5.074Zm11.24,5.074c4.117,0,7.454-2.6,7.454-5.8,0-.119-.009-.238-.014-.351L36.17,4.627H24.243L22.764,18.761c-.006.119-.012.238-.012.362,0,3.2,3.337,5.8,7.454,5.8Zm14.5,3.033V39.419H15.71V27.972a12.2,12.2,0,0,1-4.143.719,11.954,11.954,0,0,1-1.655-.142V46.957a4.068,4.068,0,0,0,4.053,4.059H46.443A4.073,4.073,0,0,0,50.5,46.957v-18.4a12.457,12.457,0,0,1-1.655.142A12.048,12.048,0,0,1,44.7,27.955ZM56.068,17.674,51.078,4.627H39.154l2.29,15.2c.447,2.87,3.586,5.1,7.4,5.1,4.117,0,7.454-2.6,7.454-5.8a4.656,4.656,0,0,0-.232-1.45Z" transform="translate(-4.113 -4.627)" fill="#00698b"/>
</svg>
