<svg xmlns="http://www.w3.org/2000/svg" xmlns:xlink="http://www.w3.org/1999/xlink" width="26.318" height="28" viewBox="0 0 26.318 28">
  <defs>
    <clipPath id="clip-path">
      <rect id="Rectangle_1665" data-name="Rectangle 1665" width="26.318" height="28" fill="none"/>
    </clipPath>
  </defs>
  <g id="Group_730" data-name="Group 730" clip-path="url(#clip-path)">
    <path id="Path_1130" data-name="Path 1130" d="M24.558,73.413H1.76a1.76,1.76,0,0,1,0-3.52h22.8a1.76,1.76,0,0,1,0,3.52M1.76,70.967a.686.686,0,0,0,0,1.372h22.8a.686.686,0,0,0,0-1.372Z" transform="translate(0 -54.884)" fill="#344154"/>
    <path id="Path_1131" data-name="Path 1131" d="M23.126,90.2h-10.8a.535.535,0,0,1-.181-.031,9.724,9.724,0,0,1-6.33-8.332A.537.537,0,0,1,6.891,81.8a8.486,8.486,0,0,0,5.532,7.333H23.032A8.6,8.6,0,0,0,28.564,81.8a.537.537,0,1,1,1.073.043,9.724,9.724,0,0,1-6.329,8.332.536.536,0,0,1-.181.031" transform="translate(-4.569 -63.827)" fill="#344154"/>
    <path id="Path_1132" data-name="Path 1132" d="M43.544,120.537H34.982a1.744,1.744,0,0,1-1.418-.732,1.694,1.694,0,0,1-.226-1.554c.018-.054.032-.085.032-.085a.54.54,0,0,1,.706-.279.534.534,0,0,1,.284.7.642.642,0,0,0,.079.6.659.659,0,0,0,.543.281h8.562a.66.66,0,0,0,.543-.281.632.632,0,0,0,.086-.58.541.541,0,0,1,.279-.708.534.534,0,0,1,.7.272s.014.031.032.086a1.693,1.693,0,0,1-.226,1.552,1.744,1.744,0,0,1-1.418.732" transform="translate(-26.104 -92.537)" fill="#344154"/>
    <path id="Path_1133" data-name="Path 1133" d="M36.673,13.559a.537.537,0,0,1-.235-1.02,8.475,8.475,0,0,0,2.117-1.422,5.935,5.935,0,0,0,1.914-4.434,5.533,5.533,0,0,0-.1-1.059.537.537,0,0,1,1.054-.205,6.628,6.628,0,0,1,.122,1.264A6.983,6.983,0,0,1,39.29,11.9a9.535,9.535,0,0,1-2.383,1.605.534.534,0,0,1-.234.054m-6.248-1.894a.536.536,0,0,1-.4-.174,6.9,6.9,0,0,1-1.848-4.81,6.612,6.612,0,0,1,.615-2.8.537.537,0,0,1,.975.451,5.545,5.545,0,0,0-.515,2.347,5.855,5.855,0,0,0,1.565,4.083.537.537,0,0,1-.4.9m4.1-1.119a.536.536,0,0,1-.215-.045,4.069,4.069,0,0,1-2.7-3.818,3.134,3.134,0,0,1,.13-.9.537.537,0,0,1,1.028.309,2.06,2.06,0,0,0-.085.593,3.052,3.052,0,0,0,2.051,2.834.537.537,0,0,1-.215,1.029m2.936-4.08a.537.537,0,0,1-.515-.388,2.17,2.17,0,0,0-3.57-.979.537.537,0,1,1-.733-.785A3.244,3.244,0,0,1,37.979,5.78a.537.537,0,0,1-.516.686m2.971-1.834a.537.537,0,0,1-.487-.311,5.6,5.6,0,0,0-9.382-1.235.537.537,0,1,1-.823-.689A6.675,6.675,0,0,1,40.92,3.869a.537.537,0,0,1-.486.763" transform="translate(-22.13 -0.002)" fill="#ff9122"/>
    <path id="Path_1134" data-name="Path 1134" d="M18.956,35.232c-.731,0-1.207-.028-1.284-.033a.537.537,0,0,1,.068-1.072c.076,0,7.779.453,11-2.567A4.152,4.152,0,0,0,30.1,28.38c0-.059,0-.119-.005-.176a.537.537,0,1,1,1.072-.069c0,.08.008.162.008.245a5.241,5.241,0,0,1-1.708,3.964c-2.74,2.572-8.061,2.888-10.513,2.888" transform="translate(-13.483 -21.699)" fill="#ff9122"/>
    <path id="Path_1135" data-name="Path 1135" d="M49.355,11.826a.537.537,0,0,1-.5-.333,3.89,3.89,0,0,0-6.5-1.117.537.537,0,0,1-.8-.716,4.964,4.964,0,0,1,8.3,1.425.537.537,0,0,1-.5.741" transform="translate(-32.525 -6.284)" fill="#ff9122"/>
    <path id="Path_1136" data-name="Path 1136" d="M38.756,27.555a.536.536,0,0,1-.323-.108,5.316,5.316,0,0,1-2.25-4.421,4.936,4.936,0,0,1,.367-1.876.537.537,0,0,1,.994.406,3.868,3.868,0,0,0-.287,1.47,4.237,4.237,0,0,0,1.824,3.564.537.537,0,0,1-.324.965" transform="translate(-28.413 -16.345)" fill="#ff9122"/>
    <path id="Path_1137" data-name="Path 1137" d="M86.162,50.932c-.566,0-1.2-.01-1.784-.041a.537.537,0,0,1,.058-1.072c1.456.078,3.346.015,3.364.014a.537.537,0,0,1,.058,1.072c-.009,0-.758.027-1.7.027" transform="translate(-65.859 -39.12)" fill="#ff9122"/>
    <path id="Path_1138" data-name="Path 1138" d="M82.451,58.676c-.865,0-1.949-.024-2.963-.113a.537.537,0,0,1,.094-1.07,41.415,41.415,0,0,0,4.5.079.537.537,0,1,1,.045,1.073c-.053,0-.737.03-1.679.03" transform="translate(-62.033 -45.146)" fill="#ff9122"/>
    <path id="Path_1139" data-name="Path 1139" d="M69.437,6.465a.537.537,0,0,1-.282-.994L77.882.081a.537.537,0,1,1,.564.913L69.719,6.384a.535.535,0,0,1-.282.08" transform="translate(-54.104 0)" fill="#ff9122"/>
    <path id="Path_1140" data-name="Path 1140" d="M15.877,8.075a.535.535,0,0,1-.282-.08L4.266.994A.537.537,0,1,1,4.831.081l11.329,7a.537.537,0,0,1-.283.994" transform="translate(-3.15 0)" fill="#ff9122"/>
    <path id="Path_1141" data-name="Path 1141" d="M21.155,95.054H22a6.9,6.9,0,0,1-2.573-5.271H15.4a7.647,7.647,0,0,0,3.22,4.533,4.675,4.675,0,0,0,2.53.738" transform="translate(-12.097 -70.502)" fill="#8aa0b2"/>
  </g>
</svg>
