<svg xmlns="http://www.w3.org/2000/svg" xmlns:xlink="http://www.w3.org/1999/xlink" width="31.187" height="28" viewBox="0 0 31.187 28">
  <defs>
    <clipPath id="clip-path">
      <rect id="Rectangle_1666" data-name="Rectangle 1666" width="31.187" height="28" fill="none"/>
    </clipPath>
  </defs>
  <g id="Mask_Group_718" data-name="Mask Group 718" clip-path="url(#clip-path)">
    <path id="Path_1142" data-name="Path 1142" d="M147.411,22.031a.513.513,0,0,1-.513-.513V20.286a.513.513,0,1,1,1.027,0v1.232a.513.513,0,0,1-.513.513" transform="translate(-116.737 -15.713)" fill="#ff9122"/>
    <path id="Path_1143" data-name="Path 1143" d="M147.411,49.911a.513.513,0,0,1-.513-.513V47.056a.513.513,0,1,1,1.027,0V49.4a.513.513,0,0,1-.513.513m0-4.683a.513.513,0,0,1-.513-.513V42.373a.513.513,0,1,1,1.027,0v2.341a.513.513,0,0,1-.513.513m0-4.683a.513.513,0,0,1-.513-.513V37.69a.513.513,0,0,1,1.027,0v2.341a.513.513,0,0,1-.513.513" transform="translate(-116.737 -29.544)" fill="#ff9122"/>
    <path id="Path_1144" data-name="Path 1144" d="M147.411,107.861a.513.513,0,0,1-.513-.513v-1.232a.513.513,0,1,1,1.027,0v1.232a.513.513,0,0,1-.513.513" transform="translate(-116.737 -83.921)" fill="#ff9122"/>
    <path id="Path_1145" data-name="Path 1145" d="M10.966,9.147C4.714,9.147,0,7.181,0,4.574S4.714,0,10.966,0,21.931,1.967,21.931,4.574,17.217,9.147,10.966,9.147m0-8.119A20.614,20.614,0,0,0,3.761,2.182c-1.737.675-2.734,1.547-2.734,2.392,0,1.677,4.082,3.546,9.939,3.546a20.615,20.615,0,0,0,7.205-1.154C19.908,6.291,20.9,5.419,20.9,4.574c0-1.677-4.082-3.546-9.939-3.546" transform="translate(0 -0.001)" fill="#344154"/>
    <path id="Path_1146" data-name="Path 1146" d="M40.45,17.639c-1.613,0-3.348-.505-3.348-1.614s1.736-1.614,3.348-1.614,3.348.505,3.348,1.614-1.736,1.614-3.348,1.614m-2.314-1.614a3.4,3.4,0,0,0,2.314.588,3.4,3.4,0,0,0,2.314-.588,3.4,3.4,0,0,0-2.314-.588,3.4,3.4,0,0,0-2.314.588" transform="translate(-29.484 -11.451)" fill="#344154"/>
    <path id="Path_1147" data-name="Path 1147" d="M10.966,43.713C4.714,43.713,0,41.747,0,39.14V20.286a.513.513,0,1,1,1.027,0V39.14c0,1.677,4.082,3.546,9.939,3.546a20.614,20.614,0,0,0,7.205-1.154c1.737-.675,2.734-1.547,2.734-2.392V19.773h9.769a.513.513,0,0,1,0,1.027H21.931V39.14c0,2.607-4.714,4.573-10.966,4.573" transform="translate(0 -15.713)" fill="#344154"/>
    <path id="Path_1148" data-name="Path 1148" d="M111.587,112.63h-9.256a.513.513,0,0,1,0-1.027h9.256a.513.513,0,0,1,0,1.027" transform="translate(-80.913 -88.689)" fill="#344154"/>
  </g>
</svg>
