<svg id="Group_750" data-name="Group 750" xmlns="http://www.w3.org/2000/svg" xmlns:xlink="http://www.w3.org/1999/xlink" width="28.245" height="28" viewBox="0 0 28.245 28">
  <defs>
    <clipPath id="clip-path">
      <rect id="Rectangle_1664" data-name="Rectangle 1664" width="28.245" height="28" fill="none"/>
    </clipPath>
  </defs>
  <g id="Group_730" data-name="Group 730" clip-path="url(#clip-path)">
    <path id="Path_1129" data-name="Path 1129" d="M79.037,86.9H68.079a.531.531,0,1,1,0-1.063H79.037a.28.28,0,1,0,0-.556H66.78a.531.531,0,0,1,0-1.063H79.037a1.341,1.341,0,1,1,0,2.681" transform="translate(-52.168 -66.318)" fill="#344154"/>
    <path id="Path_1130" data-name="Path 1130" d="M77.278,98.776H69.8a.531.531,0,0,1,0-1.063h7.381c3.5-1.311,3.692-5.2,3.7-5.368a.531.531,0,0,1,1.062.039c-.007.2-.22,4.835-4.488,6.36a.534.534,0,0,1-.179.031" transform="translate(-54.549 -72.317)" fill="#344154"/>
    <path id="Path_1131" data-name="Path 1131" d="M76.2,122.106H70.27a1.3,1.3,0,0,1-1.087-.546,1.951,1.951,0,0,1-.2-1.664c.015-.042.024-.064.024-.064a.531.531,0,0,1,.983.4.894.894,0,0,0,.06.709.235.235,0,0,0,.222.1H76.2a.227.227,0,0,0,.21-.1.9.9,0,0,0,.074-.7.529.529,0,0,1,.28-.692.534.534,0,0,1,.7.277s.011.025.026.069a1.945,1.945,0,0,1-.213,1.662,1.286,1.286,0,0,1-1.076.548" transform="translate(-54.241 -94.106)" fill="#344154"/>
    <path id="Path_1132" data-name="Path 1132" d="M100.224,103.661h.6a2.5,2.5,0,0,0,1.344-.385,5.16,5.16,0,0,0,2.1-2.943h-2.407a5.251,5.251,0,0,1-1.632,3.328" transform="translate(-78.922 -79.008)" fill="#8aa0b2"/>
    <path id="Path_1133" data-name="Path 1133" d="M50.346,60.43a.531.531,0,0,1-.531-.531c0-3.408,3.406-3.834,5.893-4.145,1.585-.2,3.082-.386,3.213-1.142a.531.531,0,1,1,1.047.182c-.267,1.531-2.142,1.766-4.128,2.014-3,.375-4.963.793-4.963,3.091a.531.531,0,0,1-.531.531" transform="translate(-39.227 -42.657)" fill="#344154"/>
    <path id="Path_1134" data-name="Path 1134" d="M64.943,41.824a.555.555,0,0,1-.09-.008.532.532,0,0,1-.435-.613c.616-3.621,3.966-3.975,5.4-4.125.117-.013.224-.024.319-.035a2.7,2.7,0,0,0,1.5-.522.531.531,0,1,1,.8.694,3.415,3.415,0,0,1-2.174.882c-.1.012-.215.024-.338.038-1.926.2-4.017.638-4.461,3.247a.531.531,0,0,1-.523.442" transform="translate(-50.721 -28.614)" fill="#344154"/>
    <path id="Path_1135" data-name="Path 1135" d="M103.871,46.388a.531.531,0,0,1-.531-.531c0-3.051-1.425-4.191-2.933-5.4a6.007,6.007,0,0,1-2.6-3.483.531.531,0,0,1,1.041-.214,5.043,5.043,0,0,0,2.227,2.867c1.562,1.249,3.332,2.665,3.332,6.227a.531.531,0,0,1-.531.531" transform="translate(-77.007 -28.615)" fill="#344154"/>
    <path id="Path_1136" data-name="Path 1136" d="M36.508,97.376a.531.531,0,0,1-.48-.3,1.522,1.522,0,0,0-.652-.669.531.531,0,1,1,.427-.973,2.541,2.541,0,0,1,1.185,1.186.532.532,0,0,1-.479.76" transform="translate(-27.606 -75.112)" fill="#344154"/>
    <path id="Path_1137" data-name="Path 1137" d="M55.1,115.656a.531.531,0,0,1-.48-.3,1.523,1.523,0,0,0-.652-.669.531.531,0,1,1,.427-.973,2.541,2.541,0,0,1,1.184,1.185.531.531,0,0,1-.479.76" transform="translate(-42.251 -89.507)" fill="#344154"/>
    <path id="Path_1138" data-name="Path 1138" d="M43.426,104.574a1.237,1.237,0,1,1,1.167,1.3,1.237,1.237,0,0,1-1.167-1.3" transform="translate(-34.195 -81.427)" fill="#ff9122"/>
    <path id="Path_1139" data-name="Path 1139" d="M31.5,96.283H31.48a3.254,3.254,0,0,1-2.65-.956,1.6,1.6,0,0,1-.306-.865,1.6,1.6,0,0,1-.862-.314,3.254,3.254,0,0,1-.93-2.659c0-.009,0-.018,0-.028a3.254,3.254,0,0,1,.956-2.65,1.6,1.6,0,0,1,.865-.306,1.6,1.6,0,0,1,.315-.862,3.254,3.254,0,0,1,2.659-.929h.027a3.253,3.253,0,0,1,2.65.956,1.6,1.6,0,0,1,.306.865,1.6,1.6,0,0,1,.862.315,3.253,3.253,0,0,1,.93,2.659c0,.009,0,.018,0,.028a3.254,3.254,0,0,1-.956,2.65,1.6,1.6,0,0,1-.865.306,1.6,1.6,0,0,1-.314.862,3.255,3.255,0,0,1-2.659.93H31.5m-2.375-2.944a.532.532,0,0,1,.512.672c-.123.449.008.626.051.684.132.178.542.483,1.814.525,1.272-.029,1.686-.329,1.819-.506.044-.058.176-.234.058-.684a.531.531,0,0,1,.654-.648c.448.123.626-.008.685-.051.178-.131.483-.542.524-1.814-.029-1.272-.329-1.686-.507-1.819-.058-.044-.234-.176-.684-.058a.531.531,0,0,1-.648-.654c.123-.449-.008-.626-.051-.685-.132-.178-.542-.483-1.814-.524-1.272.029-1.686.329-1.819.506-.044.058-.176.234-.058.684a.531.531,0,0,1-.654.648c-.448-.124-.627.008-.685.051-.178.132-.483.542-.524,1.814.029,1.272.329,1.686.506,1.819.058.044.234.177.684.058a.526.526,0,0,1,.136-.018" transform="translate(-21.051 -68.283)" fill="#344154"/>
    <path id="Path_1140" data-name="Path 1140" d="M36,115.734a.523.523,0,0,1-.206-.042.528.528,0,0,1-.284-.688,2.239,2.239,0,0,1,1.221-1.16.531.531,0,1,1,.381.992,1.211,1.211,0,0,0-.623.579.536.536,0,0,1-.49.32" transform="translate(-27.933 -89.619)" fill="#344154"/>
    <path id="Path_1141" data-name="Path 1141" d="M54.179,97.456A.532.532,0,0,1,53.7,96.7a2.239,2.239,0,0,1,1.232-1.149.531.531,0,0,1,.35,1,1.212,1.212,0,0,0-.615.586.532.532,0,0,1-.484.312" transform="translate(-42.245 -75.223)" fill="#344154"/>
    <path id="Path_1142" data-name="Path 1142" d="M6.6,51.206H1.83A1.832,1.832,0,0,1,0,49.376V31.3a1.832,1.832,0,0,1,1.83-1.83H9.381a1.832,1.832,0,0,1,1.83,1.83v5.553a.531.531,0,1,1-1.063,0V31.3a.768.768,0,0,0-.767-.767H1.83a.768.768,0,0,0-.767.767V49.376a.768.768,0,0,0,.767.767H6.6a.531.531,0,0,1,0,1.063" transform="translate(0 -23.206)" fill="#344154"/>
    <path id="Path_1143" data-name="Path 1143" d="M10.03,21.891a.531.531,0,0,1-.424-.211L8.231,19.864a.9.9,0,0,1-.081-.938.749.749,0,0,1,.667-.43h3.131a.531.531,0,0,1,0,1.063H9.332l1.121,1.481a.531.531,0,0,1-.423.852m-.952-2.669h0" transform="translate(-6.343 -14.565)" fill="#344154"/>
    <path id="Path_1144" data-name="Path 1144" d="M26.323,21.891a.531.531,0,0,1-.423-.852l1.12-1.481H24.405a.531.531,0,1,1,0-1.063h3.131a.75.75,0,0,1,.667.43.9.9,0,0,1-.082.938l-1.375,1.816a.531.531,0,0,1-.424.211m1.214-2.333h0Zm-.262-.336h0Z" transform="translate(-18.8 -14.565)" fill="#344154"/>
    <path id="Path_1145" data-name="Path 1145" d="M19.651,4.994a.532.532,0,0,1-.5-.347l-1.259-3.4-1.259,3.4a.531.531,0,1,1-1-.369L16.99.629a.956.956,0,0,1,.9-.629h0a.956.956,0,0,1,.9.629L20.15,4.278a.532.532,0,0,1-.5.716" transform="translate(-12.289 0)" fill="#344154"/>
    <path id="Path_1146" data-name="Path 1146" d="M5.168,70.354a.554.554,0,0,1-.072,0,3.758,3.758,0,0,1-2.546-1.528H.531A.531.531,0,0,1,0,68.29V64.916a.531.531,0,0,1,.531-.531H2.549a3.772,3.772,0,0,1,6.112,0h.907a.531.531,0,0,1,0,1.063H8.377a.531.531,0,0,1-.454-.255,2.71,2.71,0,0,0-4.637,0,.531.531,0,0,1-.454.255H1.063v2.311H2.833a.532.532,0,0,1,.454.255A2.7,2.7,0,0,0,5.239,69.3a.531.531,0,0,1-.071,1.058" transform="translate(0 -49.471)" fill="#344154"/>
    <path id="Path_1147" data-name="Path 1147" d="M18.083,73.938a1.688,1.688,0,0,1,2.928-1.149,1.957,1.957,0,1,0-2.386,2.386,1.684,1.684,0,0,1-.542-1.237" transform="translate(-13.513 -56.165)" fill="#ff9122"/>
  </g>
</svg>
