<svg xmlns="http://www.w3.org/2000/svg" width="147.148" height="41.133" viewBox="0 0 147.148 41.133">
  <g id="Group_727" data-name="Group 727" transform="translate(0 -2)">
    <path id="Icon_awesome-crown" data-name="Icon awesome-crown" d="M41.25,35H8.75A1.254,1.254,0,0,0,7.5,36.25v2.5A1.254,1.254,0,0,0,8.75,40h32.5a1.254,1.254,0,0,0,1.25-1.25v-2.5A1.254,1.254,0,0,0,41.25,35Zm5-25a3.751,3.751,0,0,0-3.75,3.75,3.674,3.674,0,0,0,.344,1.547l-5.656,3.391a2.5,2.5,0,0,1-3.453-.906L27.367,6.641a3.75,3.75,0,1,0-4.734,0L16.266,17.781a2.5,2.5,0,0,1-3.453.906L7.164,15.3A3.749,3.749,0,1,0,3.75,17.5a3.829,3.829,0,0,0,.6-.063L10,32.5H40l5.648-15.062a3.829,3.829,0,0,0,.6.063,3.75,3.75,0,0,0,0-7.5Z" transform="translate(0 2)" fill="#ffce00"/>
    <path id="Path_1129" data-name="Path 1129" d="M20.82-21.426q0,.391-.43.391-.742,0-5.879-.293-.117,4.941-.117,6.895,0,2.3.186,6.934t.186,6.934q0,.371-.176.469a2.346,2.346,0,0,1-.547.1,28.085,28.085,0,0,1-3.437.156A26.912,26.912,0,0,1,7.07,0a.574.574,0,0,1-.547-.605q0-2.3.2-6.914t.2-6.914q0-1.523-.156-6.8-3.906.391-6.23.391-.313,0-.312-.2a11.418,11.418,0,0,1,.273-1.5Q.8-23.906.84-24.2q.059-.918.137-1.836.137-1.465.469-1.465.039,0,.273.02a78.832,78.832,0,0,0,9.355.41q1.758,0,6.484-.371l2.559-.2a1.067,1.067,0,0,1,.449.049q.059.049.078.381,0,.527-.039,1.465-.039,1.035-.039,1.465a11.764,11.764,0,0,0,.127,1.436A11.728,11.728,0,0,1,20.82-21.426ZM41.563-9.609a9.871,9.871,0,0,1-2.725,7.227A9.586,9.586,0,0,1,31.68.391a9.65,9.65,0,0,1-7.07-2.734,9.446,9.446,0,0,1-2.773-7.031,10.294,10.294,0,0,1,2.656-7.354,9.4,9.4,0,0,1,7.188-2.822,9.612,9.612,0,0,1,7.148,2.764A9.767,9.767,0,0,1,41.563-9.609Zm-6.406,0a4.2,4.2,0,0,0-.957-2.725,3.044,3.044,0,0,0-2.48-1.182A3.144,3.144,0,0,0,29.18-12.3a4.093,4.093,0,0,0-.937,2.7,4.121,4.121,0,0,0,.938,2.715,3.144,3.144,0,0,0,2.539,1.211,3.125,3.125,0,0,0,2.52-1.211A4.177,4.177,0,0,0,35.156-9.609Zm30.313.215a10.018,10.018,0,0,1-2.461,6.934A8.492,8.492,0,0,1,56.348.391a8.159,8.159,0,0,1-3.223-.742,7.418,7.418,0,0,1-1.562-.742q-.254,0-.254.586,0,1,.1,3t.1,3a.561.561,0,0,1-.645.625l-3.984.02a9.3,9.3,0,0,1-1.738-.1.679.679,0,0,1-.586-.723L44.59-9.727a36.593,36.593,0,0,0-.684-7.676,1.738,1.738,0,0,1-.039-.332.381.381,0,0,1,.234-.391,16.626,16.626,0,0,1,2.91-.625,21.86,21.86,0,0,1,3.027-.332q.762,0,.869,1.006t.264,1.006q-.2,0,1.67-1.064A6.967,6.967,0,0,1,56.23-19.2a8.713,8.713,0,0,1,6.777,2.793A9.994,9.994,0,0,1,65.469-9.395Zm-7.246-.039a4.194,4.194,0,0,0-.957-2.734,3.216,3.216,0,0,0-2.559-1.23,2.986,2.986,0,0,0-2.5,1.23,4.482,4.482,0,0,0-.82,2.734,4.321,4.321,0,0,0,.859,2.754,3.027,3.027,0,0,0,2.539,1.191Q58.223-5.488,58.223-9.434ZM86.953-1a.928.928,0,0,1-.332.684A1.036,1.036,0,0,1,85.9,0q-.937,0-2.812.02t-2.812.02q-.723,0-.7-.625L79.59-.8q.273-7.461.273-9.043v-5.8q0-.547-.254-.547a4.636,4.636,0,0,0-1.182.234,4.648,4.648,0,0,1-1.2.234q-.605,0-.605-.723,0-.664-.02-1.992t-.02-2.012q0-.391.488-.586a11.231,11.231,0,0,0,4.512-3.2q.332-.41.566-.41a1.949,1.949,0,0,1,.234.039q.742.156,2.207.488.781.1,2.285.352a.389.389,0,0,1,.273.43,3.644,3.644,0,0,1-.039.41q-.215,1.719-.215,8.418,0,2.246.029,6.758T86.953-1Z" transform="translate(60 37)" fill="#ffce00"/>
  </g>
</svg>
