<svg xmlns="http://www.w3.org/2000/svg" width="110.272" height="28.345" viewBox="0 0 110.272 28.345">
  <g id="Group_728" data-name="Group 728" transform="translate(-294.618 183.083)">
    <path id="Icon_awesome-crown" data-name="Icon awesome-crown" d="M29.231,24.8H6.2a.888.888,0,0,0-.886.886v1.772a.888.888,0,0,0,.886.886h23.03a.888.888,0,0,0,.886-.886V25.688A.888.888,0,0,0,29.231,24.8ZM32.774,7.086a2.658,2.658,0,0,0-2.657,2.657,2.6,2.6,0,0,0,.244,1.1l-4.008,2.4a1.769,1.769,0,0,1-2.447-.642L19.393,4.706a2.657,2.657,0,1,0-3.355,0L11.526,12.6a1.77,1.77,0,0,1-2.447.642l-4-2.4A2.656,2.656,0,1,0,2.657,12.4a2.714,2.714,0,0,0,.426-.044l4,10.674H28.345l4-10.674a2.714,2.714,0,0,0,.426.044,2.657,2.657,0,0,0,0-5.315Z" transform="translate(294.618 -183.083)" fill="#908e8c"/>
    <path id="Path_1130" data-name="Path 1130" d="M14.054-14.462q0,.264-.29.264-.5,0-3.968-.2-.079,3.335-.079,4.654,0,1.556.125,4.68t.125,4.68q0,.25-.119.316A1.584,1.584,0,0,1,9.479,0a18.958,18.958,0,0,1-2.32.105A18.166,18.166,0,0,1,4.772,0,.387.387,0,0,1,4.4-.409q0-1.556.132-4.667t.132-4.667q0-1.028-.105-4.588-2.637.264-4.206.264-.211,0-.211-.132A7.707,7.707,0,0,1,.33-15.214q.211-.923.237-1.121.04-.62.092-1.239.092-.989.316-.989.026,0,.185.013a53.212,53.212,0,0,0,6.315.277q1.187,0,4.377-.25l1.727-.132a.72.72,0,0,1,.3.033q.04.033.053.257,0,.356-.026.989-.026.7-.026.989a7.941,7.941,0,0,0,.086.969A7.916,7.916,0,0,1,14.054-14.462Zm14,7.976a6.663,6.663,0,0,1-1.839,4.878A6.47,6.47,0,0,1,21.384.264a6.514,6.514,0,0,1-4.772-1.846,6.376,6.376,0,0,1-1.872-4.746,6.948,6.948,0,0,1,1.793-4.964A6.343,6.343,0,0,1,21.384-13.2a6.488,6.488,0,0,1,4.825,1.865A6.593,6.593,0,0,1,28.055-6.486Zm-4.324,0a2.838,2.838,0,0,0-.646-1.839,2.055,2.055,0,0,0-1.674-.8,2.122,2.122,0,0,0-1.714.817,2.763,2.763,0,0,0-.633,1.819A2.782,2.782,0,0,0,19.7-4.654a2.122,2.122,0,0,0,1.714.817,2.109,2.109,0,0,0,1.7-.817A2.819,2.819,0,0,0,23.73-6.486Zm20.461.145a6.762,6.762,0,0,1-1.661,4.68,5.732,5.732,0,0,1-4.5,1.925,5.508,5.508,0,0,1-2.175-.5,5.007,5.007,0,0,1-1.055-.5q-.171,0-.171.4,0,.672.066,2.024T34.765,3.7a.379.379,0,0,1-.435.422l-2.689.013a6.278,6.278,0,0,1-1.173-.066.458.458,0,0,1-.4-.488L30.1-6.565a24.7,24.7,0,0,0-.461-5.181,1.173,1.173,0,0,1-.026-.224.257.257,0,0,1,.158-.264,11.222,11.222,0,0,1,1.964-.422,14.756,14.756,0,0,1,2.043-.224q.514,0,.587.679t.178.679q-.132,0,1.127-.719a4.7,4.7,0,0,1,2.287-.719,5.881,5.881,0,0,1,4.575,1.885A6.746,6.746,0,0,1,44.191-6.341ZM39.3-6.368a2.831,2.831,0,0,0-.646-1.846,2.171,2.171,0,0,0-1.727-.831,2.015,2.015,0,0,0-1.687.831,3.026,3.026,0,0,0-.554,1.846,2.917,2.917,0,0,0,.58,1.859,2.043,2.043,0,0,0,1.714.8Q39.3-3.7,39.3-6.368Zm25.972,2.61q0,.3-.066.91t-.066.923q0,.316-.013,1T65.114.079q0,.33-.435.33a10.945,10.945,0,0,1-1.239-.25,24.82,24.82,0,0,0-4.482-.264q-1.015,0-3.045.112T52.893.119a.341.341,0,0,1-.382-.33q-.04-.448-.2-1.332a12.922,12.922,0,0,1-.33-1.542q0-.29,1.107-.435a3.74,3.74,0,0,0,1.661-.475A21.236,21.236,0,0,0,57.48-6.829q1.78-2.162,1.78-3.243a2.079,2.079,0,0,0-.679-1.575,2.275,2.275,0,0,0-1.615-.639,5.543,5.543,0,0,0-2.1.422,7.584,7.584,0,0,0-1.463.765,4.194,4.194,0,0,1-.712.409q-.448,0-.448-1.055a7.527,7.527,0,0,0-.066-1.187,6.2,6.2,0,0,0-.2-.712,2.381,2.381,0,0,1-.158-.686.429.429,0,0,1,.224-.33,8.554,8.554,0,0,1,2.927-1.226,13.492,13.492,0,0,1,3.177-.4,7.484,7.484,0,0,1,4.192,1.107A4.134,4.134,0,0,1,64.336-11.5q0,3.177-4.812,7.422,3.415-.171,5.353-.171Q65.272-4.245,65.272-3.757Z" transform="translate(339.618 -159.5)" fill="#908e8c"/>
  </g>
</svg>
