<svg xmlns="http://www.w3.org/2000/svg" width="108.637" height="28.872" viewBox="0 0 108.637 28.872">
  <g id="Group_729" data-name="Group 729" transform="translate(-467.436 179.013)">
    <path id="Icon_awesome-crown" data-name="Icon awesome-crown" d="M29.309,24.868H6.217a.891.891,0,0,0-.888.888v1.776a.891.891,0,0,0,.888.888H29.309a.891.891,0,0,0,.888-.888V25.756A.891.891,0,0,0,29.309,24.868ZM32.862,7.105A2.665,2.665,0,0,0,30.2,9.77a2.61,2.61,0,0,0,.244,1.1l-4.019,2.409a1.774,1.774,0,0,1-2.454-.644L19.445,4.718a2.664,2.664,0,1,0-3.364,0l-4.524,7.916a1.775,1.775,0,0,1-2.454.644L5.09,10.869a2.664,2.664,0,1,0-2.426,1.565,2.721,2.721,0,0,0,.427-.044l4.013,10.7H28.421l4.013-10.7a2.721,2.721,0,0,0,.427.044,2.664,2.664,0,0,0,0-5.329Z" transform="translate(467.436 -179.013)" fill="#c99540"/>
    <path id="Path_1131" data-name="Path 1131" d="M14.574-15q0,.273-.3.273-.52,0-4.115-.205-.082,3.459-.082,4.826,0,1.613.13,4.854T10.336-.4q0,.26-.123.328A1.642,1.642,0,0,1,9.83,0,19.66,19.66,0,0,1,7.424.109,18.838,18.838,0,0,1,4.949,0a.4.4,0,0,1-.383-.424q0-1.613.137-4.84T4.84-10.1q0-1.066-.109-4.758Q2-14.588.369-14.588q-.219,0-.219-.137a7.993,7.993,0,0,1,.191-1.053q.219-.957.246-1.162.041-.643.1-1.285.1-1.025.328-1.025.027,0,.191.014a55.183,55.183,0,0,0,6.549.287q1.23,0,4.539-.26l1.791-.137a.747.747,0,0,1,.314.034q.041.034.055.267,0,.369-.027,1.025-.027.725-.027,1.025a8.235,8.235,0,0,0,.089,1A8.21,8.21,0,0,1,14.574-15Zm14.52,8.271a6.91,6.91,0,0,1-1.907,5.059A6.71,6.71,0,0,1,22.176.273a6.755,6.755,0,0,1-4.949-1.914,6.612,6.612,0,0,1-1.941-4.922,7.205,7.205,0,0,1,1.859-5.147,6.578,6.578,0,0,1,5.031-1.976,6.728,6.728,0,0,1,5,1.935A6.837,6.837,0,0,1,29.094-6.727Zm-4.484,0a2.943,2.943,0,0,0-.67-1.907A2.131,2.131,0,0,0,22.2-9.461a2.2,2.2,0,0,0-1.777.848,2.865,2.865,0,0,0-.656,1.887,2.885,2.885,0,0,0,.656,1.9,2.2,2.2,0,0,0,1.777.848,2.188,2.188,0,0,0,1.764-.848A2.924,2.924,0,0,0,24.609-6.727Zm21.219.15a7.013,7.013,0,0,1-1.723,4.854,5.944,5.944,0,0,1-4.662,2,5.712,5.712,0,0,1-2.256-.52,5.193,5.193,0,0,1-1.094-.52q-.178,0-.178.41,0,.7.068,2.1t.068,2.1a.393.393,0,0,1-.451.438l-2.789.014A6.51,6.51,0,0,1,31.6,4.225a.475.475,0,0,1-.41-.506l.027-10.527a25.615,25.615,0,0,0-.479-5.373,1.217,1.217,0,0,1-.027-.232.267.267,0,0,1,.164-.273,11.638,11.638,0,0,1,2.037-.437,15.3,15.3,0,0,1,2.119-.232q.533,0,.608.7t.185.7q-.137,0,1.169-.745a4.877,4.877,0,0,1,2.372-.745,6.1,6.1,0,0,1,4.744,1.955A7,7,0,0,1,45.828-6.576ZM40.756-6.6a2.936,2.936,0,0,0-.67-1.914,2.251,2.251,0,0,0-1.791-.861,2.09,2.09,0,0,0-1.75.861A3.138,3.138,0,0,0,35.971-6.6a3.025,3.025,0,0,0,.6,1.928,2.119,2.119,0,0,0,1.777.834Q40.756-3.842,40.756-6.6ZM66.637-4.676a4.386,4.386,0,0,1-2.092,3.9A7.887,7.887,0,0,1,60.1.4,16.4,16.4,0,0,1,56.725.109Q53.84-.492,53.84-.957a.868.868,0,0,1,.055-.246q.191-.506.561-1.518.109-.506.383-1.5a.431.431,0,0,1,.41-.342q-.041,0,1.224.451a6.481,6.481,0,0,0,2.071.451q2.68,0,2.68-1.791,0-1.436-2.543-1.436-.342,0-.9.027t-.738.027q-.834,0-.916-.014-.6-.068-.6-.465a12.149,12.149,0,0,1,.164-2.625.432.432,0,0,1,.438-.342,11.818,11.818,0,0,1,1.374.116,11.792,11.792,0,0,0,1.36.116,1.326,1.326,0,0,0,.978-.39,1.343,1.343,0,0,0,.39-.991q0-1.613-2.352-1.613a9.422,9.422,0,0,0-2.666.533.634.634,0,0,1-.123.014q-.178,0-.3-.383-.027-.574-.082-1.312-.014-.164-.082-.656a4.916,4.916,0,0,1-.055-.643q0-.725,2.242-1.121a17.173,17.173,0,0,1,2.994-.273,7.911,7.911,0,0,1,4.074,1.025,3.782,3.782,0,0,1,2.119,3.4,4.139,4.139,0,0,1-2.27,3.8,4.249,4.249,0,0,1,2.126,1.518A4.037,4.037,0,0,1,66.637-4.676Z" transform="translate(509.436 -154.434)" fill="#c99540"/>
  </g>
</svg>
