<svg xmlns="http://www.w3.org/2000/svg" width="110.931" height="28.345" viewBox="0 0 110.931 28.345">
  <g id="Group_730" data-name="Group 730" transform="translate(-639.253 183.083)">
    <path id="Icon_awesome-crown" data-name="Icon awesome-crown" d="M29.231,24.8H6.2a.888.888,0,0,0-.886.886v1.772a.888.888,0,0,0,.886.886h23.03a.888.888,0,0,0,.886-.886V25.688A.888.888,0,0,0,29.231,24.8ZM32.774,7.086a2.658,2.658,0,0,0-2.657,2.657,2.6,2.6,0,0,0,.244,1.1l-4.008,2.4a1.769,1.769,0,0,1-2.447-.642L19.393,4.706a2.657,2.657,0,1,0-3.355,0L11.526,12.6a1.77,1.77,0,0,1-2.447.642l-4-2.4A2.656,2.656,0,1,0,2.657,12.4a2.714,2.714,0,0,0,.426-.044l4,10.674H28.345l4-10.674a2.714,2.714,0,0,0,.426.044,2.657,2.657,0,0,0,0-5.315Z" transform="translate(639.253 -183.083)" fill="#bcb595"/>
    <path id="Path_1132" data-name="Path 1132" d="M14.054-14.462q0,.264-.29.264-.5,0-3.968-.2-.079,3.335-.079,4.654,0,1.556.125,4.68t.125,4.68q0,.25-.119.316A1.584,1.584,0,0,1,9.479,0a18.958,18.958,0,0,1-2.32.105A18.166,18.166,0,0,1,4.772,0,.387.387,0,0,1,4.4-.409q0-1.556.132-4.667t.132-4.667q0-1.028-.105-4.588-2.637.264-4.206.264-.211,0-.211-.132A7.707,7.707,0,0,1,.33-15.214q.211-.923.237-1.121.04-.62.092-1.239.092-.989.316-.989.026,0,.185.013a53.212,53.212,0,0,0,6.315.277q1.187,0,4.377-.25l1.727-.132a.72.72,0,0,1,.3.033q.04.033.053.257,0,.356-.026.989-.026.7-.026.989a7.941,7.941,0,0,0,.086.969A7.916,7.916,0,0,1,14.054-14.462Zm14,7.976a6.663,6.663,0,0,1-1.839,4.878A6.47,6.47,0,0,1,21.384.264a6.514,6.514,0,0,1-4.772-1.846,6.376,6.376,0,0,1-1.872-4.746,6.948,6.948,0,0,1,1.793-4.964A6.343,6.343,0,0,1,21.384-13.2a6.488,6.488,0,0,1,4.825,1.865A6.593,6.593,0,0,1,28.055-6.486Zm-4.324,0a2.838,2.838,0,0,0-.646-1.839,2.055,2.055,0,0,0-1.674-.8,2.122,2.122,0,0,0-1.714.817,2.763,2.763,0,0,0-.633,1.819A2.782,2.782,0,0,0,19.7-4.654a2.122,2.122,0,0,0,1.714.817,2.109,2.109,0,0,0,1.7-.817A2.819,2.819,0,0,0,23.73-6.486Zm20.461.145a6.762,6.762,0,0,1-1.661,4.68,5.732,5.732,0,0,1-4.5,1.925,5.508,5.508,0,0,1-2.175-.5,5.007,5.007,0,0,1-1.055-.5q-.171,0-.171.4,0,.672.066,2.024T34.765,3.7a.379.379,0,0,1-.435.422l-2.689.013a6.278,6.278,0,0,1-1.173-.066.458.458,0,0,1-.4-.488L30.1-6.565a24.7,24.7,0,0,0-.461-5.181,1.173,1.173,0,0,1-.026-.224.257.257,0,0,1,.158-.264,11.222,11.222,0,0,1,1.964-.422,14.756,14.756,0,0,1,2.043-.224q.514,0,.587.679t.178.679q-.132,0,1.127-.719a4.7,4.7,0,0,1,2.287-.719,5.881,5.881,0,0,1,4.575,1.885A6.746,6.746,0,0,1,44.191-6.341ZM39.3-6.368a2.831,2.831,0,0,0-.646-1.846,2.171,2.171,0,0,0-1.727-.831,2.015,2.015,0,0,0-1.687.831,3.026,3.026,0,0,0-.554,1.846,2.917,2.917,0,0,0,.58,1.859,2.043,2.043,0,0,0,1.714.8Q39.3-3.7,39.3-6.368Zm26.631,3.4q0,.2-.33.264a3.072,3.072,0,0,1-.659.013,4.642,4.642,0,0,1-.5-.04.454.454,0,0,0-.514.514q0,.316.04.956t.04.956q0,.461-.409.461A42.954,42.954,0,0,1,58.812.046q-.237-.112-.237-.283a6.758,6.758,0,0,1,.165-.976A6.186,6.186,0,0,0,58.9-2.347q0-.435-.488-.435-.883,0-2.643.053t-2.643.053q-1.055,0-1.055-.831,0-.422-.013-1.259t-.013-1.259a1.255,1.255,0,0,1,.409-.831,34.92,34.92,0,0,0,2.808-3.3q.422-.593,2.861-4.627a18.6,18.6,0,0,1,1.028-1.661.519.519,0,0,1,.4-.224,11.991,11.991,0,0,1,1.958.475,9.98,9.98,0,0,0,2.235.475q.422,0,.422.541a14.933,14.933,0,0,1-.119,1.549,14.962,14.962,0,0,0-.119,1.562v5.55a8.034,8.034,0,0,0,.87-.079,6.5,6.5,0,0,1,.857-.079q.25,0,.25.3,0,.277-.033.831t-.033.844q0,.29.046.864T65.931-2.966ZM59.418-11.3q0-.079-.092-.079-.119,0-.237.171L57.4-8.49a14.965,14.965,0,0,1-1.978,2.518q.725,0,3.691-.185.026-.527.185-2.6Q59.418-10.389,59.418-11.3Z" transform="translate(684.253 -159.5)" fill="#bcb595"/>
  </g>
</svg>
