<svg xmlns="http://www.w3.org/2000/svg" width="108.938" height="28.872" viewBox="0 0 108.938 28.872">
  <g id="Group_731" data-name="Group 731" transform="translate(-809 187.579)">
    <path id="Icon_awesome-crown" data-name="Icon awesome-crown" d="M29.309,24.868H6.217a.891.891,0,0,0-.888.888v1.776a.891.891,0,0,0,.888.888H29.309a.891.891,0,0,0,.888-.888V25.756A.891.891,0,0,0,29.309,24.868ZM32.862,7.105A2.665,2.665,0,0,0,30.2,9.77a2.61,2.61,0,0,0,.244,1.1l-4.019,2.409a1.774,1.774,0,0,1-2.454-.644L19.445,4.718a2.664,2.664,0,1,0-3.364,0l-4.524,7.916a1.775,1.775,0,0,1-2.454.644L5.09,10.869a2.664,2.664,0,1,0-2.426,1.565,2.721,2.721,0,0,0,.427-.044l4.013,10.7H28.421l4.013-10.7a2.721,2.721,0,0,0,.427.044,2.664,2.664,0,0,0,0-5.329Z" transform="translate(809 -187.579)" fill="#525252"/>
    <path id="Path_1133" data-name="Path 1133" d="M14.574-15q0,.273-.3.273-.52,0-4.115-.205-.082,3.459-.082,4.826,0,1.613.13,4.854T10.336-.4q0,.26-.123.328A1.642,1.642,0,0,1,9.83,0,19.66,19.66,0,0,1,7.424.109,18.838,18.838,0,0,1,4.949,0a.4.4,0,0,1-.383-.424q0-1.613.137-4.84T4.84-10.1q0-1.066-.109-4.758Q2-14.588.369-14.588q-.219,0-.219-.137a7.993,7.993,0,0,1,.191-1.053q.219-.957.246-1.162.041-.643.1-1.285.1-1.025.328-1.025.027,0,.191.014a55.183,55.183,0,0,0,6.549.287q1.23,0,4.539-.26l1.791-.137a.747.747,0,0,1,.314.034q.041.034.055.267,0,.369-.027,1.025-.027.725-.027,1.025a8.235,8.235,0,0,0,.089,1A8.21,8.21,0,0,1,14.574-15Zm14.52,8.271a6.91,6.91,0,0,1-1.907,5.059A6.71,6.71,0,0,1,22.176.273a6.755,6.755,0,0,1-4.949-1.914,6.612,6.612,0,0,1-1.941-4.922,7.205,7.205,0,0,1,1.859-5.147,6.578,6.578,0,0,1,5.031-1.976,6.728,6.728,0,0,1,5,1.935A6.837,6.837,0,0,1,29.094-6.727Zm-4.484,0a2.943,2.943,0,0,0-.67-1.907A2.131,2.131,0,0,0,22.2-9.461a2.2,2.2,0,0,0-1.777.848,2.865,2.865,0,0,0-.656,1.887,2.885,2.885,0,0,0,.656,1.9,2.2,2.2,0,0,0,1.777.848,2.188,2.188,0,0,0,1.764-.848A2.924,2.924,0,0,0,24.609-6.727Zm21.219.15a7.013,7.013,0,0,1-1.723,4.854,5.944,5.944,0,0,1-4.662,2,5.712,5.712,0,0,1-2.256-.52,5.193,5.193,0,0,1-1.094-.52q-.178,0-.178.41,0,.7.068,2.1t.068,2.1a.393.393,0,0,1-.451.438l-2.789.014A6.51,6.51,0,0,1,31.6,4.225a.475.475,0,0,1-.41-.506l.027-10.527a25.615,25.615,0,0,0-.479-5.373,1.217,1.217,0,0,1-.027-.232.267.267,0,0,1,.164-.273,11.638,11.638,0,0,1,2.037-.437,15.3,15.3,0,0,1,2.119-.232q.533,0,.608.7t.185.7q-.137,0,1.169-.745a4.877,4.877,0,0,1,2.372-.745,6.1,6.1,0,0,1,4.744,1.955A7,7,0,0,1,45.828-6.576ZM40.756-6.6a2.936,2.936,0,0,0-.67-1.914,2.251,2.251,0,0,0-1.791-.861,2.09,2.09,0,0,0-1.75.861A3.138,3.138,0,0,0,35.971-6.6a3.025,3.025,0,0,0,.6,1.928,2.119,2.119,0,0,0,1.777.834Q40.756-3.842,40.756-6.6Zm26.182.889Q66.938.4,59.4.4A24.476,24.476,0,0,1,56.479.164q-2.379-.3-2.5-.725a6.979,6.979,0,0,1-.055-1.217,11.394,11.394,0,0,1,.137-1.531q.178-1.23.41-1.23a.636.636,0,0,1,.232.082,8.234,8.234,0,0,0,3.732.82q3.021,0,3.021-1.969a1.742,1.742,0,0,0-1.107-1.627,4.511,4.511,0,0,0-2.064-.437,13.606,13.606,0,0,0-1.511.123,13.606,13.606,0,0,1-1.511.123q-.479,0-.479-.437,0-1.312.116-4.006t.116-4.006a.942.942,0,0,1,.2-.54.762.762,0,0,1,.444-.335q.3-.055,3.8-.055,3.979,0,5.346.027.369.014.369.314a18.8,18.8,0,0,1-.164,2.133q-.205,1.736-.492,1.736l-.15-.014q-3.09-.273-3.855-.273-1.5,0-1.613.164a3.489,3.489,0,0,0-.232,1.545.466.466,0,0,0,.068.273q.342,0,1.08-.068.7-.068,1.08-.068A6.522,6.522,0,0,1,65.119-9.68,4.8,4.8,0,0,1,66.938-5.715Z" transform="translate(851 -163)" fill="#525252"/>
  </g>
</svg>
