<svg xmlns="http://www.w3.org/2000/svg" xmlns:xlink="http://www.w3.org/1999/xlink" width="21.359" height="28" viewBox="0 0 21.359 28">
  <defs>
    <clipPath id="clip-path">
      <rect id="Rectangle_1664" data-name="Rectangle 1664" width="21.359" height="28" transform="translate(-2 -2)" fill="none"/>
    </clipPath>
  </defs>
  <g id="Group_728" data-name="Group 728" transform="translate(2 2)" clip-path="url(#clip-path)">
    <path id="Path_1088" data-name="Path 1088" d="M2.229,16.714H4.267a.9.9,0,0,1,.9.9v3.113c0,.822.359,1.014.9,1.3a3.913,3.913,0,0,1,.621.388,1.757,1.757,0,0,1,.625.866,5.726,5.726,0,0,1,.19,1.76V38.894a1.368,1.368,0,0,1-.837,1.261,9.319,9.319,0,0,1-3.411.47,9.319,9.319,0,0,1-3.41-.47A1.368,1.368,0,0,1-1,38.894V25.043a5.726,5.726,0,0,1,.19-1.76,1.757,1.757,0,0,1,.625-.866,3.913,3.913,0,0,1,.62-.388c.538-.29.893-.482.9-1.3V17.612A.9.9,0,0,1,2.229,16.714Zm1.9,1.037H2.369v2.977a2.268,2.268,0,0,1-.5,1.522,3.057,3.057,0,0,1-.945.692,3.107,3.107,0,0,0-.462.282.741.741,0,0,0-.294.39,5.04,5.04,0,0,0-.136,1.428V38.894a.333.333,0,0,0,.2.306,8.118,8.118,0,0,0,3.006.388A8.119,8.119,0,0,0,6.254,39.2a.333.333,0,0,0,.2-.306V25.043a5.04,5.04,0,0,0-.136-1.428.741.741,0,0,0-.293-.39,3.107,3.107,0,0,0-.462-.283,3.057,3.057,0,0,1-.945-.692,2.268,2.268,0,0,1-.5-1.522V17.751Z" transform="translate(-0.793 -14.833)" fill="#344154"/>
    <path id="Rectangle_1657" data-name="Rectangle 1657" d="M-1.5-2.5H1.576a1,1,0,0,1,1,1v.358a1,1,0,0,1-1,1H-1.5a1,1,0,0,1-1-1V-1.5A1,1,0,0,1-1.5-2.5ZM1.543-1.463H-1.463v.292H1.543Z" transform="translate(2.415 3.052)" fill="#344154"/>
    <path id="Path_1089" data-name="Path 1089" d="M15.051,1.863H14.014V.57a.533.533,0,1,0-1.067,0V1.863H11.91V.57a1.57,1.57,0,1,1,3.141,0Z" transform="translate(-11.025 -0.793)" fill="#344154"/>
    <path id="Path_1090" data-name="Path 1090" d="M55.7,50.718a6.9,6.9,0,0,1-2.851-.525,3.7,3.7,0,0,1-1.656-1.429,4.555,4.555,0,0,1-.616-2.345,8.965,8.965,0,0,1,.3-2.321,13.584,13.584,0,0,1,.921-2.532.519.519,0,0,1,.926.468,12.766,12.766,0,0,0-.846,2.339,7.9,7.9,0,0,0-.266,2.041,3.534,3.534,0,0,0,.463,1.809,2.642,2.642,0,0,0,1.2,1.028,7.014,7.014,0,0,0,4.84,0,2.642,2.642,0,0,0,1.2-1.028,3.534,3.534,0,0,0,.463-1.809,7.9,7.9,0,0,0-.266-2.042,12.766,12.766,0,0,0-.846-2.339.519.519,0,0,1,.926-.467,13.585,13.585,0,0,1,.921,2.532,8.966,8.966,0,0,1,.3,2.321,4.555,4.555,0,0,1-.616,2.345,3.7,3.7,0,0,1-1.656,1.429A6.9,6.9,0,0,1,55.7,50.718Z" transform="translate(-41.669 -34.304)" fill="#344154"/>
    <path id="Line_47" data-name="Line 47" d="M4.381-1.463H-1.981A.519.519,0,0,1-2.5-1.981.519.519,0,0,1-1.981-2.5H4.381a.519.519,0,0,1,.519.519A.519.519,0,0,1,4.381-1.463Z" transform="translate(12.832 12.855)" fill="#344154"/>
    <path id="Path_1091" data-name="Path 1091" d="M57.679,92.2H48.725a.519.519,0,0,1-.417-.826,5.389,5.389,0,0,1,1.486-1.359,7.187,7.187,0,0,1,1.582-.732,8.5,8.5,0,0,1,1.309-.317V82.3a.519.519,0,1,1,1.037,0v7.122a.519.519,0,0,1-.486.518,6.994,6.994,0,0,0-1.562.334,6.123,6.123,0,0,0-1.341.625q-.2.124-.374.262h7.722a.519.519,0,1,1,0,1.037Z" transform="translate(-39.793 -66.405)" fill="#344154"/>
    <path id="Line_48" data-name="Line 48" d="M-1.981,1.608A.519.519,0,0,1-2.5,1.09V-1.981A.519.519,0,0,1-1.981-2.5a.519.519,0,0,1,.519.519V1.09A.519.519,0,0,1-1.981,1.608Z" transform="translate(16.835 21.804)" fill="#344154"/>
    <path id="Path_1129" data-name="Path 1129" d="M7.5,92.111v6.262a9.287,9.287,0,0,0,2.485.248,9.285,9.285,0,0,0,2.485-.248V92.111Z" transform="translate(-7.53 -74.592)" fill="#ff9122"/>
  </g>
</svg>
